<svg width="25" height="24" viewBox="0 0 25 24" fill="none" xmlns="http://www.w3.org/2000/svg">
<rect width="24" height="24" transform="translate(0.599609)" fill="white"/>
<path d="M15.2024 8.07321C15.1945 9.288 14.2615 10.2702 13.1099 10.2765C11.9573 10.2837 11.0145 9.3119 10.9938 8.09814C11.0017 6.88335 11.9346 5.90113 13.0863 5.89488C14.2389 5.88762 15.1817 6.85945 15.2024 8.07321ZM18.142 13.0902C16.6446 14.9923 14.5875 17.6006 13.0902 19.4859C11.5849 17.6004 9.52788 14.9673 8.0384 13.0735C4.31846 8.4137 7.26604 0.805129 13.0902 1.00448C18.9223 0.788516 21.8856 8.43045 18.142 13.0902ZM16.7786 8.04822C16.7106 3.10803 9.59668 2.83187 9.41737 8.09806C9.60455 13.2262 16.6593 13.1629 16.7786 8.04822ZM17.8819 16.0223C12.4281 22.8677 13.763 22.9249 8.32207 16.0306C2.8211 18.7218 6.28871 24.0546 13.0901 23.9964C19.2209 24.1542 23.7249 19.108 17.8819 16.0223Z" fill="#319A52"/>
</svg>
