<svg width="51" height="50" viewBox="0 0 51 50" fill="none" xmlns="http://www.w3.org/2000/svg">
<path fill-rule="evenodd" clip-rule="evenodd" d="M12.6841 0H48.0177C48.6754 0.00197136 49.3057 0.264134 49.7708 0.729233C50.2359 1.19433 50.498 1.82458 50.5 2.48232V37.8155C50.498 38.5113 50.2207 39.1781 49.7287 39.6702C49.2366 40.1622 48.5698 40.4395 47.8739 40.4415H36.7971C36.797 38.1627 36.1079 35.9372 34.8201 34.0573C33.5322 32.1773 31.706 30.7307 29.581 29.9075C27.4561 29.0843 25.132 28.923 22.9137 29.4447C20.6954 29.9664 18.6868 31.1467 17.1515 32.8307C14.8091 32.4288 12.4345 32.2443 10.058 32.2794V2.62604C10.06 1.93018 10.3373 1.26338 10.8294 0.771328C11.3214 0.279277 11.9882 0.00197194 12.6841 0ZM19.2096 48.7588C17.7149 49.4665 14.2656 49.9615 10.2535 49.9615C4.86682 49.9615 0.5 49.0693 0.5 47.969V45.2733C2.44713 46.5576 7.29283 46.8451 10.2535 46.8451C12.4762 46.8643 14.6965 46.6912 16.8894 46.3277C17.5268 47.2586 18.3103 48.0805 19.2096 48.7617V48.7588ZM25.5 30.883C23.6095 30.8829 21.7613 31.4434 20.1894 32.4936C18.6174 33.5439 17.3921 35.0366 16.6686 36.7832C15.945 38.5298 15.7557 40.4517 16.1244 42.3059C16.4932 44.1601 17.4035 45.8633 18.7403 47.2002C20.077 48.537 21.7802 49.4474 23.6344 49.8163C25.4886 50.1852 27.4106 49.9959 29.1572 49.2725C30.9039 48.549 32.3967 47.3239 33.4471 45.752C34.4974 44.1801 35.058 42.332 35.058 40.4415C35.0581 39.1863 34.8109 37.9434 34.3306 36.7837C33.8503 35.624 33.1463 34.5703 32.2587 33.6827C31.3712 32.7951 30.3175 32.091 29.1578 31.6106C27.9982 31.1303 26.7552 30.883 25.5 30.883ZM29.1885 38.457C29.1885 36.956 27.8156 35.95 26.3715 35.6821V34.8514C26.3745 34.7353 26.3542 34.6198 26.3119 34.5117C26.2695 34.4036 26.2059 34.3051 26.1249 34.222C26.0439 34.1388 25.947 34.0727 25.84 34.0276C25.733 33.9825 25.6181 33.9592 25.502 33.9592C25.3859 33.9592 25.271 33.9825 25.164 34.0276C25.057 34.0727 24.9602 34.1388 24.8791 34.222C24.7981 34.3051 24.7345 34.4036 24.6922 34.5117C24.6498 34.6198 24.6295 34.7353 24.6325 34.8514V35.6821C23.1867 35.95 21.8156 36.956 21.8156 38.457C21.8156 40.6944 23.5885 40.9957 25.3615 41.2975C26.4072 41.4751 27.4535 41.6533 27.4535 42.426C27.4372 42.5687 27.3875 42.7055 27.3084 42.8254C27.2292 42.9453 27.123 43.0448 26.9981 43.1158C25.7282 44.0098 23.5546 43.3504 23.5546 42.426C23.5576 42.3099 23.5373 42.1944 23.4949 42.0863C23.4526 41.9782 23.389 41.8797 23.308 41.7965C23.2269 41.7134 23.1301 41.6473 23.0231 41.6022C22.9161 41.5571 22.8012 41.5338 22.6851 41.5338C22.569 41.5338 22.454 41.5571 22.3471 41.6022C22.2401 41.6473 22.1432 41.7134 22.0622 41.7965C21.9811 41.8797 21.9176 41.9782 21.8752 42.0863C21.8329 42.1944 21.8126 42.3099 21.8156 42.426C21.8156 43.927 23.1884 44.933 24.6325 45.2003V46.0316C24.6383 46.2584 24.7325 46.4738 24.8949 46.6321C25.0574 46.7905 25.2752 46.879 25.502 46.879C25.7288 46.879 25.9467 46.7905 26.1091 46.6321C26.2715 46.4738 26.3657 46.2584 26.3715 46.0316V45.2003C27.8179 44.933 29.1885 43.927 29.1885 42.426C29.1885 40.1886 27.4155 39.8873 25.6426 39.5855C24.5969 39.4079 23.5506 39.2297 23.5506 38.457C23.5662 38.3135 23.6155 38.1758 23.6946 38.055C23.7736 37.9342 23.8801 37.8338 24.0053 37.762C25.2752 36.8686 27.4489 37.528 27.4489 38.4553C27.4459 38.5714 27.4662 38.6869 27.5085 38.795C27.5509 38.9031 27.6144 39.0016 27.6955 39.0847C27.7765 39.1679 27.8734 39.234 27.9804 39.2791C28.0873 39.3242 28.2023 39.3475 28.3184 39.3475C28.4345 39.3475 28.5494 39.3242 28.6564 39.2791C28.7634 39.234 28.8602 39.1679 28.9413 39.0847C29.0223 39.0016 29.0859 38.9031 29.1282 38.795C29.1706 38.6869 29.1909 38.5714 29.1879 38.4553L29.1885 38.457ZM10.2535 34.0178C4.86682 34.0178 0.5 34.91 0.5 36.0109C0.5 37.1118 4.86912 38.004 10.2535 38.004C11.9859 38.011 13.717 37.9092 15.4366 37.6993C15.7424 36.5757 16.2351 35.5115 16.894 34.5513C14.7009 34.1751 12.4785 33.9966 10.2535 34.0178ZM15.1521 41.7206C15.0251 40.6815 15.0536 39.6292 15.2366 38.5984C13.583 38.7865 11.92 38.8782 10.2558 38.8732C7.29513 38.8732 2.45231 38.5858 0.5023 37.3015V39.9971C0.5023 41.0974 4.87142 41.9896 10.2558 41.9896C11.8917 41.9952 13.5266 41.9053 15.1521 41.7206ZM16.3984 45.5309C15.8819 44.6083 15.5093 43.6123 15.2935 42.5772C13.6213 42.7704 11.9391 42.8647 10.2558 42.8594C7.29513 42.8594 2.45231 42.572 0.5023 41.2871V43.9828C0.5023 45.0836 4.87142 45.9758 10.2558 45.9758C12.3119 45.9906 14.3659 45.8418 16.3984 45.5309ZM39.2052 29.5372V35.7011H42.823V29.5372H39.2052ZM39.2052 14.5525V18.1702H42.823V14.5525H39.2052ZM28.4704 22.0448V25.6625H32.0882V22.0448H28.4704ZM17.7356 22.0448V25.6625H21.3534V22.0448H17.7356ZM28.4704 14.5525V18.1702H32.0882V14.5525H28.4704ZM17.7356 14.5525V18.1702H21.3534V14.5525H17.7356ZM39.2052 22.0448V25.6625H42.823V22.0448H39.2052ZM15.9264 4.74102V10.9348H44.6322V4.74044L15.9264 4.74102ZM15.9264 3.87123C15.6958 3.87123 15.4745 3.96287 15.3114 4.12598C15.1483 4.2891 15.0566 4.51033 15.0566 4.74102V10.9348C15.0568 11.1653 15.1485 11.3864 15.3116 11.5494C15.4747 11.7124 15.6959 11.804 15.9264 11.804H44.6322C44.8627 11.804 45.0838 11.7124 45.2468 11.5494C45.4098 11.3864 45.5014 11.1653 45.5014 10.9348V4.74044C45.5015 4.62625 45.479 4.51316 45.4354 4.40763C45.3917 4.30211 45.3277 4.20622 45.247 4.12544C45.1663 4.04467 45.0704 3.98059 44.9649 3.93687C44.8594 3.89315 44.7463 3.87065 44.6322 3.87065L15.9264 3.87123ZM39.2052 28.6674C38.9746 28.6674 38.7533 28.7591 38.5902 28.9222C38.4271 29.0853 38.3354 29.3065 38.3354 29.5372V35.7011C38.3354 35.9317 38.4271 36.153 38.5902 36.3161C38.7533 36.4792 38.9746 36.5708 39.2052 36.5708H42.823C43.0536 36.5707 43.2747 36.479 43.4377 36.3159C43.6007 36.1528 43.6922 35.9316 43.6922 35.7011V29.5372C43.6922 29.3066 43.6007 29.0855 43.4377 28.9224C43.2747 28.7593 43.0536 28.6676 42.823 28.6674H39.2052ZM39.2052 13.6832C39.091 13.6832 38.978 13.7056 38.8724 13.7492C38.7669 13.7929 38.671 13.8569 38.5902 13.9376C38.5095 14.0183 38.4454 14.1142 38.4017 14.2197C38.358 14.3252 38.3354 14.4383 38.3354 14.5525V18.1702C38.3354 18.2844 38.3578 18.3975 38.4015 18.5031C38.4452 18.6087 38.5093 18.7046 38.59 18.7854C38.6708 18.8661 38.7667 18.9302 38.8723 18.9739C38.9779 19.0176 39.091 19.04 39.2052 19.04H42.823C42.9372 19.04 43.0503 19.0175 43.1558 18.9737C43.2613 18.93 43.3571 18.8659 43.4378 18.7852C43.5186 18.7044 43.5826 18.6085 43.6262 18.503C43.6699 18.3974 43.6923 18.2844 43.6922 18.1702V14.5525C43.6922 14.3219 43.6006 14.1008 43.4376 13.9378C43.2746 13.7748 43.0535 13.6832 42.823 13.6832H39.2052ZM28.4704 21.1756C28.3562 21.1755 28.2431 21.198 28.1376 21.2416C28.0321 21.2853 27.9362 21.3493 27.8554 21.43C27.7746 21.5107 27.7106 21.6066 27.6668 21.7121C27.6231 21.8176 27.6006 21.9306 27.6006 22.0448V25.6625C27.6006 25.7768 27.623 25.8899 27.6667 25.9955C27.7104 26.101 27.7744 26.197 27.8552 26.2777C27.936 26.3585 28.0319 26.4226 28.1375 26.4663C28.243 26.51 28.3562 26.5324 28.4704 26.5323H32.0882C32.2024 26.5323 32.3155 26.5098 32.4209 26.4661C32.5264 26.4224 32.6223 26.3583 32.703 26.2775C32.7837 26.1968 32.8478 26.1009 32.8914 25.9954C32.9351 25.8898 32.9575 25.7767 32.9574 25.6625V22.0448C32.9574 21.8143 32.8658 21.5932 32.7028 21.4302C32.5398 21.2672 32.3187 21.1756 32.0882 21.1756H28.4704ZM17.7356 21.1756C17.6214 21.1755 17.5083 21.198 17.4028 21.2416C17.2973 21.2853 17.2014 21.3493 17.1206 21.43C17.0398 21.5107 16.9758 21.6066 16.932 21.7121C16.8883 21.8176 16.8658 21.9306 16.8658 22.0448V25.6625C16.8657 25.7768 16.8882 25.8899 16.9319 25.9955C16.9756 26.101 17.0396 26.197 17.1204 26.2777C17.2012 26.3585 17.2971 26.4226 17.4027 26.4663C17.5082 26.51 17.6214 26.5324 17.7356 26.5323H21.3534C21.584 26.5323 21.8053 26.4407 21.9684 26.2776C22.1315 26.1145 22.2232 25.8932 22.2232 25.6625V22.0448C22.223 21.8143 22.1313 21.5932 21.9682 21.4302C21.8051 21.2672 21.5839 21.1756 21.3534 21.1756H17.7356ZM28.4704 13.6832C28.3562 13.6832 28.2431 13.7056 28.1376 13.7492C28.0321 13.7929 27.9362 13.8569 27.8554 13.9376C27.7746 14.0183 27.7106 14.1142 27.6668 14.2197C27.6231 14.3252 27.6006 14.4383 27.6006 14.5525V18.1702C27.6006 18.2844 27.623 18.3975 27.6667 18.5031C27.7104 18.6087 27.7744 18.7046 27.8552 18.7854C27.936 18.8661 28.0319 18.9302 28.1375 18.9739C28.243 19.0176 28.3562 19.04 28.4704 19.04H32.0882C32.2024 19.04 32.3155 19.0175 32.4209 18.9737C32.5264 18.93 32.6223 18.8659 32.703 18.7852C32.7837 18.7044 32.8478 18.6085 32.8914 18.503C32.9351 18.3974 32.9575 18.2844 32.9574 18.1702V14.5525C32.9574 14.3219 32.8658 14.1008 32.7028 13.9378C32.5398 13.7748 32.3187 13.6832 32.0882 13.6832H28.4704ZM17.7356 13.6832C17.6214 13.6832 17.5083 13.7056 17.4028 13.7492C17.2973 13.7929 17.2014 13.8569 17.1206 13.9376C17.0398 14.0183 16.9758 14.1142 16.932 14.2197C16.8883 14.3252 16.8658 14.4383 16.8658 14.5525V18.1702C16.8657 18.2844 16.8882 18.3975 16.9319 18.5031C16.9756 18.6087 17.0396 18.7046 17.1204 18.7854C17.2012 18.8661 17.2971 18.9302 17.4027 18.9739C17.5082 19.0176 17.6214 19.04 17.7356 19.04H21.3534C21.584 19.04 21.8053 18.9483 21.9684 18.7852C22.1315 18.6221 22.2232 18.4008 22.2232 18.1702V14.5525C22.223 14.3219 22.1313 14.1008 21.9682 13.9378C21.8051 13.7748 21.5839 13.6832 21.3534 13.6832H17.7356ZM39.2052 21.1756C39.091 21.1755 38.978 21.198 38.8724 21.2416C38.7669 21.2853 38.671 21.3493 38.5902 21.43C38.5095 21.5107 38.4454 21.6066 38.4017 21.7121C38.358 21.8176 38.3354 21.9306 38.3354 22.0448V25.6625C38.3354 25.7768 38.3578 25.8899 38.4015 25.9955C38.4452 26.101 38.5093 26.197 38.59 26.2777C38.6708 26.3585 38.7667 26.4226 38.8723 26.4663C38.9779 26.51 39.091 26.5324 39.2052 26.5323H42.823C42.9372 26.5323 43.0503 26.5098 43.1558 26.4661C43.2613 26.4224 43.3571 26.3583 43.4378 26.2775C43.5186 26.1968 43.5826 26.1009 43.6262 25.9954C43.6699 25.8898 43.6923 25.7767 43.6922 25.6625V22.0448C43.6922 21.8143 43.6006 21.5932 43.4376 21.4302C43.2746 21.2672 43.0535 21.1756 42.823 21.1756H39.2052Z" fill="#049219"/>
</svg>
