<svg width="39" height="38" viewBox="0 0 39 38" fill="none" xmlns="http://www.w3.org/2000/svg">
<ellipse cx="19.8255" cy="18.855" rx="19.0755" ry="18.855" fill="#3BB44D"/>
<path fill-rule="evenodd" clip-rule="evenodd" d="M11 14.7829C11 12.1456 13.1456 10 15.7829 10H23.5402C26.1775 10 28.323 12.1456 28.323 14.7829V22.5402C28.323 25.1775 26.1775 27.323 23.5402 27.323H15.7829C13.1456 27.323 11 25.1775 11 22.5402V14.7829ZM16.2222 18.6615C16.2222 20.558 17.7651 22.1009 19.6615 22.1009C21.558 22.1009 23.1009 20.558 23.1009 18.6615C23.1009 16.7651 21.558 15.2222 19.6615 15.2222C17.7651 15.2222 16.2222 16.7651 16.2222 18.6615ZM15.1074 18.6615C15.1074 16.1503 17.1503 14.1074 19.6615 14.1074C22.1727 14.1074 24.2157 16.1503 24.2157 18.6615C24.2157 21.1727 22.1727 23.2156 19.6615 23.2156C17.1503 23.2156 15.1074 21.1727 15.1074 18.6615ZM25.2091 11.837C25.8693 11.837 26.4044 12.3722 26.4044 13.0324C26.4044 13.6926 25.8693 14.2277 25.2091 14.2277C24.5489 14.2277 24.0137 13.6926 24.0137 13.0324C24.0137 12.3722 24.5489 11.837 25.2091 11.837Z" fill="white"/>
</svg>
