<svg width="20" height="20" viewBox="0 0 20 20" fill="none" xmlns="http://www.w3.org/2000/svg">
<path d="M17.8949 8.71879L13.5068 11.9745L15.2203 17.1641L15.2194 17.165C15.2846 17.3561 15.2185 17.5664 15.0551 17.6848C14.8945 17.807 14.6733 17.8097 14.5099 17.6913L9.99897 14.511L5.48894 17.6913C5.41001 17.7473 5.31731 17.7776 5.22095 17.7785C5.07226 17.7767 4.93275 17.7041 4.84464 17.5829C4.75745 17.4626 4.73267 17.3074 4.77856 17.165L6.49211 11.9726L2.10496 8.71877C1.94893 8.59663 1.88744 8.38817 1.94985 8.1999C2.01318 8.01164 2.18847 7.88306 2.38765 7.87939H7.8495L9.55845 2.69069C9.62086 2.49967 9.79891 2.37109 9.99991 2.37109C10.2009 2.37109 10.379 2.49967 10.4414 2.69069L12.1549 7.87939H17.6177C17.815 7.8849 17.9885 8.01347 18.05 8.20174C18.1124 8.39 18.05 8.59666 17.8949 8.71879Z" fill="#F48025"/>
</svg>
