<svg width="39" height="38" viewBox="0 0 39 38" fill="none" xmlns="http://www.w3.org/2000/svg">
<ellipse cx="19.8255" cy="18.855" rx="19.0755" ry="18.855" fill="#3BB44D"/>
<path d="M19.8498 7.30664C13.596 7.30664 10.4424 11.7901 10.4424 15.5297C10.4424 17.7935 11.2995 19.8074 13.1375 20.5573C13.439 20.6816 13.7092 20.5619 13.7967 20.2281C13.8575 19.998 14.0015 19.4152 14.0655 19.1717C14.1534 18.8417 14.1194 18.7266 13.8759 18.438C13.3461 17.8133 13.0068 17.0041 13.0068 15.857C13.0068 12.5308 15.4957 9.55298 19.4876 9.55298C23.0223 9.55298 24.9644 11.7128 24.9644 14.5966C24.9644 18.3924 23.2847 21.5957 20.7916 21.5957C19.4144 21.5957 18.3842 20.4574 18.7138 19.0603C19.1092 17.3926 19.8756 15.5937 19.8756 14.389C19.8756 13.3119 19.297 12.4134 18.1006 12.4134C16.693 12.4134 15.562 13.8698 15.562 15.8202C15.562 17.0626 15.9818 17.9031 15.9818 17.9031C15.9818 17.9031 14.5415 24.0069 14.2888 25.0757C13.7861 27.2047 14.2133 29.8137 14.2496 30.077C14.2708 30.2335 14.4715 30.2713 14.5627 30.1535C14.692 29.9836 16.3694 27.914 16.9388 25.8454C17.1004 25.2603 17.8645 22.2277 17.8645 22.2277C18.3221 23.1005 19.6588 23.8674 21.0803 23.8674C25.311 23.8674 28.182 20.0104 28.182 14.8475C28.1825 10.9427 24.8756 7.30664 19.8498 7.30664Z" fill="white"/>
</svg>
