<svg width="39" height="38" viewBox="0 0 39 38" fill="none" xmlns="http://www.w3.org/2000/svg">
<ellipse cx="19.8255" cy="18.855" rx="19.0755" ry="18.855" fill="#3BB44D"/>
<path d="M19.8498 7.30676C13.596 7.30676 10.4424 11.7902 10.4424 15.5298C10.4424 17.7937 11.2995 19.8075 13.1375 20.5574C13.439 20.6817 13.7092 20.562 13.7967 20.2283C13.8575 19.9981 14.0015 19.4153 14.0655 19.1718C14.1534 18.8418 14.1194 18.7267 13.8759 18.4381C13.3461 17.8135 13.0068 17.0042 13.0068 15.8571C13.0068 12.5309 15.4957 9.5531 19.4876 9.5531C23.0223 9.5531 24.9644 11.7129 24.9644 14.5968C24.9644 18.3925 23.2847 21.5959 20.7916 21.5959C19.4144 21.5959 18.3842 20.4575 18.7138 19.0604C19.1092 17.3927 19.8756 15.5938 19.8756 14.3892C19.8756 13.312 19.297 12.4135 18.1006 12.4135C16.693 12.4135 15.562 13.8699 15.562 15.8203C15.562 17.0627 15.9818 17.9032 15.9818 17.9032C15.9818 17.9032 14.5415 24.007 14.2888 25.0758C13.7861 27.2048 14.2133 29.8139 14.2496 30.0772C14.2708 30.2337 14.4715 30.2714 14.5627 30.1536C14.692 29.9837 16.3694 27.9141 16.9388 25.8455C17.1004 25.2604 17.8645 22.2279 17.8645 22.2279C18.3221 23.1006 19.6588 23.8675 21.0803 23.8675C25.311 23.8675 28.182 20.0105 28.182 14.8476C28.1825 10.9428 24.8756 7.30676 19.8498 7.30676Z" fill="white"/>
</svg>
