<svg width="25" height="24" viewBox="0 0 25 24" fill="none" xmlns="http://www.w3.org/2000/svg">
<rect width="24" height="24" transform="translate(0.399902)" fill="white"/>
<path d="M15.0027 8.07321C14.9948 9.288 14.0618 10.2702 12.9102 10.2765C11.7576 10.2837 10.8148 9.3119 10.7941 8.09814C10.802 6.88335 11.7349 5.90113 12.8866 5.89488C14.0392 5.88762 14.982 6.85945 15.0027 8.07321ZM17.9423 13.0902C16.4449 14.9923 14.3878 17.6006 12.8905 19.4859C11.3852 17.6004 9.32818 14.9673 7.83869 13.0735C4.11875 8.4137 7.06633 0.805129 12.8905 1.00448C18.7226 0.788516 21.6859 8.43045 17.9423 13.0902ZM16.5789 8.04822C16.5109 3.10803 9.39698 2.83187 9.21766 8.09806C9.40484 13.2262 16.4596 13.1629 16.5789 8.04822ZM17.6822 16.0223C12.2284 22.8677 13.5633 22.9249 8.12236 16.0306C2.62139 18.7218 6.08901 24.0546 12.8904 23.9964C19.0211 24.1542 23.5252 19.108 17.6822 16.0223Z" fill="#319A52"/>
</svg>
