<svg width="51" height="50" viewBox="0 0 51 50" fill="none" xmlns="http://www.w3.org/2000/svg">
<path d="M25.4988 0C24.5221 0 23.5476 0.346775 22.799 1.04091L20.1132 3.52915C19.2042 4.37199 17.9448 4.76467 16.6925 4.5949L12.9937 4.09589C10.931 3.81626 8.98108 5.17071 8.62115 7.13733L7.97563 10.6642C7.7571 11.8582 6.9773 12.8869 5.86003 13.455L2.55941 15.1349C0.719127 16.0707 -0.0234721 18.2657 0.891432 20.0595L2.53114 23.2748C3.0866 24.3638 3.0866 25.6359 2.53114 26.7249L0.891432 29.9402C-0.0234721 31.734 0.71914 33.9312 2.55941 34.867L5.86003 36.5447C6.9773 37.1128 7.7571 38.1415 7.97563 39.3355L8.62115 42.8624C8.98108 44.829 10.931 46.1834 12.9937 45.9038L16.6925 45.4048C17.9448 45.2351 19.2042 45.6277 20.1132 46.4706L22.799 48.9588C24.2962 50.3471 26.7038 50.3471 28.201 48.9588L30.8868 46.4706C31.7958 45.6277 33.0552 45.235 34.3075 45.4048L38.0063 45.9038C40.069 46.1835 42.0189 44.829 42.3789 42.8624L43.0244 39.3355C43.2429 38.1415 44.0227 37.1128 45.14 36.5447L48.4406 34.867C50.2809 33.9312 51.0235 31.734 50.1086 29.9402L48.4689 26.7249C47.9134 25.6359 47.9134 24.3638 48.4689 23.2748L50.1086 20.0595C51.0235 18.2657 50.2809 16.0707 48.4406 15.1349L45.14 13.455C44.0227 12.8869 43.2429 11.8582 43.0244 10.6642L42.3789 7.13733C42.0189 5.17071 40.069 3.81626 38.0063 4.09589L34.3075 4.5949C33.0552 4.76467 31.7958 4.37199 30.8868 3.52915L28.201 1.04091C27.4524 0.346776 26.4755 4.36937e-07 25.4988 0ZM19.0601 14.4937C21.544 14.4937 23.5835 16.4483 23.5835 18.8289C23.5835 21.2095 21.544 23.1642 19.0601 23.1642C16.5763 23.1642 14.5368 21.2095 14.5368 18.8289C14.5368 16.4483 16.5763 14.4937 19.0601 14.4937ZM34.456 15.2614C34.7759 15.2614 35.0826 15.3833 35.3088 15.6001C35.535 15.8169 35.662 16.1109 35.662 16.4174C35.662 16.724 35.535 17.018 35.3088 17.2348L17.3969 34.4019C17.1707 34.6186 16.8639 34.7404 16.544 34.7404C16.2242 34.7404 15.9174 34.6186 15.6912 34.4019C15.4651 34.1851 15.338 33.8911 15.338 33.5845C15.338 33.278 15.4651 32.9839 15.6912 32.7672L33.6031 15.6001C33.8293 15.3833 34.1361 15.2614 34.456 15.2614ZM19.0601 16.8058C17.88 16.8058 16.9493 17.6979 16.9493 18.8289C16.9493 19.9599 17.88 20.852 19.0601 20.852C20.2402 20.852 21.171 19.9599 21.171 18.8289C21.171 17.6979 20.2402 16.8058 19.0601 16.8058ZM31.9399 26.8356C34.4237 26.8356 36.4632 28.7902 36.4632 31.1708C36.4632 33.5514 34.4237 35.506 31.9399 35.506C29.456 35.506 27.4165 33.5514 27.4165 31.1708C27.4165 28.7902 29.456 26.8356 31.9399 26.8356ZM31.9399 29.1477C30.7598 29.1477 29.829 30.0398 29.829 31.1708C29.829 32.3018 30.7598 33.1939 31.9399 33.1939C33.12 33.1939 34.0507 32.3018 34.0507 31.1708C34.0507 30.0398 33.12 29.1477 31.9399 29.1477Z" fill="#049219"/>
</svg>
