<svg width="25" height="24" viewBox="0 0 25 24" fill="none" xmlns="http://www.w3.org/2000/svg">
<rect width="24" height="24" transform="translate(0.799805)" fill="white"/>
<path d="M15.4026 8.07321C15.3947 9.288 14.4617 10.2702 13.3101 10.2765C12.1575 10.2837 11.2147 9.3119 11.194 8.09814C11.2019 6.88335 12.1348 5.90113 13.2865 5.89488C14.4391 5.88762 15.3819 6.85945 15.4026 8.07321ZM18.3422 13.0902C16.8448 14.9923 14.7877 17.6006 13.2904 19.4859C11.7851 17.6004 9.72808 14.9673 8.23859 13.0735C4.51865 8.4137 7.46623 0.805129 13.2904 1.00448C19.1225 0.788516 22.0858 8.43045 18.3422 13.0902ZM16.9788 8.04822C16.9108 3.10803 9.79688 2.83187 9.61756 8.09806C9.80474 13.2262 16.8595 13.1629 16.9788 8.04822ZM18.0821 16.0223C12.6283 22.8677 13.9632 22.9249 8.52226 16.0306C3.0213 18.7218 6.48891 24.0546 13.2903 23.9964C19.4211 24.1542 23.9251 19.108 18.0821 16.0223Z" fill="#319A52"/>
</svg>
