<svg width="25" height="24" viewBox="0 0 25 24" fill="none" xmlns="http://www.w3.org/2000/svg">
<rect width="24" height="24" transform="translate(0.200195)" fill="white"/>
<path d="M14.803 8.07321C14.7951 9.288 13.8621 10.2702 12.7105 10.2765C11.5579 10.2837 10.6151 9.3119 10.5944 8.09814C10.6023 6.88335 11.5352 5.90113 12.6868 5.89488C13.8395 5.88762 14.7823 6.85945 14.803 8.07321ZM17.7426 13.0902C16.2452 14.9923 14.1881 17.6006 12.6908 19.4859C11.1855 17.6004 9.12847 14.9673 7.63898 13.0735C3.91904 8.4137 6.86662 0.805129 12.6908 1.00448C18.5229 0.788516 21.4862 8.43045 17.7426 13.0902ZM16.3791 8.04822C16.3112 3.10803 9.19727 2.83187 9.01796 8.09806C9.20514 13.2262 16.2599 13.1629 16.3791 8.04822ZM17.4825 16.0223C12.0287 22.8677 13.3636 22.9249 7.92265 16.0306C2.42169 18.7218 5.8893 24.0546 12.6907 23.9964C18.8214 24.1542 23.3255 19.108 17.4825 16.0223Z" fill="#319A52"/>
</svg>
