<svg width="24" height="24" viewBox="0 0 24 24" fill="none" xmlns="http://www.w3.org/2000/svg">
<rect width="24" height="24" fill="white"/>
<path d="M14.6028 8.07321C14.5949 9.288 13.6619 10.2702 12.5103 10.2765C11.3577 10.2837 10.4149 9.3119 10.3942 8.09814C10.4021 6.88335 11.335 5.90113 12.4867 5.89488C13.6393 5.88762 14.5821 6.85945 14.6028 8.07321ZM17.5424 13.0902C16.045 14.9923 13.9879 17.6006 12.4906 19.4859C10.9853 17.6004 8.92827 14.9673 7.43879 13.0735C3.71885 8.4137 6.66643 0.805129 12.4906 1.00448C18.3227 0.788516 21.286 8.43045 17.5424 13.0902ZM16.179 8.04822C16.111 3.10803 8.99707 2.83187 8.81776 8.09806C9.00494 13.2262 16.0597 13.1629 16.179 8.04822ZM17.2823 16.0223C11.8285 22.8677 13.1634 22.9249 7.72246 16.0306C2.22149 18.7218 5.6891 24.0546 12.4905 23.9964C18.6212 24.1542 23.1253 19.108 17.2823 16.0223Z" fill="#319A52"/>
</svg>
