<svg width="44" height="44" viewBox="0 0 44 44" fill="none" xmlns="http://www.w3.org/2000/svg">
<circle cx="22" cy="22" r="22" fill="#3BB44D"/>
<path d="M30.4898 12.7363H13.5073C11.1722 12.7363 9.26172 14.589 9.26172 16.8533V27.1457C9.26172 29.41 11.1722 31.2626 13.5073 31.2626H30.4898C32.8249 31.2626 34.7354 29.41 34.7354 27.1457V16.8533C34.7354 14.589 32.8249 12.7363 30.4898 12.7363ZM32.188 18.7059L23.8029 24.1609C23.2722 24.4697 22.6354 24.6755 21.9986 24.6755C21.3617 24.6755 20.7249 24.4697 20.1942 24.1609L11.8091 18.7059C11.3845 18.3971 11.2784 17.7796 11.5968 17.265C11.9152 16.8533 12.5521 16.7504 13.0828 17.0591L21.4679 22.5141C21.7863 22.72 22.317 22.72 22.6354 22.5141L31.0205 17.0591C31.5512 16.7504 32.188 16.8533 32.5065 17.3679C32.7187 17.7796 32.6126 18.3971 32.188 18.7059Z" fill="white"/>
</svg>
