<svg width="154" height="21" viewBox="0 0 154 21" fill="none" xmlns="http://www.w3.org/2000/svg">
<path d="M14.6524 5.89844L20.2383 6.71875C20.7071 6.79688 21.0977 7.10938 21.2539 7.57812C21.4102 8.00781 21.293 8.51562 20.9414 8.82812L16.8789 12.8516L17.8555 18.5547C17.9336 19.0234 17.7383 19.4922 17.3477 19.7656C16.9571 20.0781 16.4493 20.0781 16.0196 19.8828L11.0196 17.1875L5.9805 19.8828C5.58988 20.0781 5.043 20.0781 4.69144 19.7656C4.30081 19.4922 4.1055 19.0234 4.18363 18.5547L5.12113 12.8516L1.05863 8.82812C0.707065 8.51562 0.589877 8.00781 0.746127 7.57812C0.902377 7.10938 1.293 6.79688 1.76175 6.71875L7.38675 5.89844L9.88675 0.703125C10.0821 0.273438 10.5118 0 11.0196 0C11.4883 0 11.918 0.273438 12.1133 0.703125L14.6524 5.89844Z" fill="#EFA536"/>
<path d="M47.6524 5.89844L53.2383 6.71875C53.7071 6.79688 54.0977 7.10938 54.2539 7.57812C54.4102 8.00781 54.293 8.51562 53.9414 8.82812L49.8789 12.8516L50.8555 18.5547C50.9336 19.0234 50.7383 19.4922 50.3477 19.7656C49.9571 20.0781 49.4493 20.0781 49.0196 19.8828L44.0196 17.1875L38.9805 19.8828C38.5899 20.0781 38.043 20.0781 37.6914 19.7656C37.3008 19.4922 37.1055 19.0234 37.1836 18.5547L38.1211 12.8516L34.0586 8.82812C33.7071 8.51562 33.5899 8.00781 33.7461 7.57812C33.9024 7.10938 34.293 6.79688 34.7618 6.71875L40.3868 5.89844L42.8868 0.703125C43.0821 0.273438 43.5118 0 44.0196 0C44.4883 0 44.918 0.273438 45.1133 0.703125L47.6524 5.89844Z" fill="#EFA536"/>
<path d="M80.6524 5.89844L86.2383 6.71875C86.7071 6.79688 87.0977 7.10938 87.2539 7.57812C87.4102 8.00781 87.293 8.51562 86.9414 8.82812L82.8789 12.8516L83.8555 18.5547C83.9336 19.0234 83.7383 19.4922 83.3477 19.7656C82.9571 20.0781 82.4492 20.0781 82.0196 19.8828L77.0196 17.1875L71.9805 19.8828C71.5899 20.0781 71.043 20.0781 70.6914 19.7656C70.3008 19.4922 70.1055 19.0234 70.1836 18.5547L71.1211 12.8516L67.0586 8.82812C66.7071 8.51562 66.5899 8.00781 66.7461 7.57812C66.9024 7.10938 67.293 6.79688 67.7617 6.71875L73.3867 5.89844L75.8867 0.703125C76.0821 0.273438 76.5117 0 77.0196 0C77.4883 0 77.918 0.273438 78.1133 0.703125L80.6524 5.89844Z" fill="#EFA536"/>
<path d="M113.652 5.89844L119.238 6.71875C119.707 6.79688 120.098 7.10938 120.254 7.57812C120.41 8.00781 120.293 8.51562 119.941 8.82812L115.879 12.8516L116.855 18.5547C116.934 19.0234 116.738 19.4922 116.348 19.7656C115.957 20.0781 115.449 20.0781 115.02 19.8828L110.02 17.1875L104.98 19.8828C104.59 20.0781 104.043 20.0781 103.691 19.7656C103.301 19.4922 103.105 19.0234 103.184 18.5547L104.121 12.8516L100.059 8.82812C99.7071 8.51562 99.5899 8.00781 99.7461 7.57812C99.9024 7.10938 100.293 6.79688 100.762 6.71875L106.387 5.89844L108.887 0.703125C109.082 0.273438 109.512 0 110.02 0C110.488 0 110.918 0.273438 111.113 0.703125L113.652 5.89844Z" fill="#EFA536"/>
<path d="M146.652 5.89844L152.238 6.71875C152.707 6.79688 153.098 7.10938 153.254 7.57812C153.41 8.00781 153.293 8.51562 152.941 8.82812L148.879 12.8516L149.855 18.5547C149.934 19.0234 149.738 19.4922 149.348 19.7656C148.957 20.0781 148.449 20.0781 148.02 19.8828L143.02 17.1875L137.98 19.8828C137.59 20.0781 137.043 20.0781 136.691 19.7656C136.301 19.4922 136.105 19.0234 136.184 18.5547L137.121 12.8516L133.059 8.82812C132.707 8.51562 132.59 8.00781 132.746 7.57812C132.902 7.10938 133.293 6.79688 133.762 6.71875L139.387 5.89844L141.887 0.703125C142.082 0.273438 142.512 0 143.02 0C143.488 0 143.918 0.273438 144.113 0.703125L146.652 5.89844Z" fill="#EFA536"/>
</svg>
