<svg width="153" height="40" viewBox="0 0 153 40" fill="none" xmlns="http://www.w3.org/2000/svg">
<g clip-path="url(#clip0_4_701)">
<path d="M45.5635 32.8642H44.5005V28.0927H45.5635V32.8642ZM51.3602 32.8642H50.2972C50.1348 32.8642 49.9928 32.82 49.871 32.7318C49.7713 32.662 49.6679 32.5462 49.561 32.3843L47.7284 29.6594C47.7099 29.619 47.6785 29.5988 47.6341 29.5988V32.8642H46.5711V28.0927H47.6341C47.793 28.0927 47.9351 28.1369 48.0606 28.2252C48.1638 28.2987 48.2672 28.4127 48.3707 28.5672L50.1974 31.2921C50.216 31.3363 50.2492 31.3582 50.2972 31.3582V28.0927H51.3602V32.8642ZM56.7302 29.1519H54.8701V32.8642H53.8071V29.1519H51.9415V28.0927H56.7302V29.1519ZM61.5692 32.8642H57.3117V28.0927H61.5692V29.1519H58.3747V29.9463H61.3035V31.0054H58.3747V31.8051H61.5692V32.8642ZM66.4744 32.8642H65.4114V31.1156C65.4114 31.0421 65.3744 31.0054 65.3006 31.0054H63.2799V32.8642H62.2169V28.0927H65.4114C65.6991 28.0927 65.9483 28.1955 66.1588 28.4015C66.3691 28.6077 66.4744 28.8577 66.4744 29.1519V29.9463C66.4744 30.0491 66.4568 30.1503 66.4217 30.2496C66.3866 30.3489 66.3376 30.4243 66.275 30.4757C66.3376 30.5271 66.3866 30.6017 66.4217 30.6992C66.4568 30.7967 66.4744 30.8986 66.4744 31.0054V32.8642ZM65.4114 29.8414V29.2567C65.4114 29.1867 65.3744 29.1519 65.3006 29.1519H63.2799V29.9463H65.3006C65.3338 29.9463 65.3604 29.936 65.3807 29.9158C65.401 29.8955 65.4114 29.8707 65.4114 29.8414ZM72.254 32.8642H71.191C71.0287 32.8642 70.8868 32.82 70.765 32.7318C70.6655 32.662 70.5621 32.5462 70.4551 32.3843L68.6224 29.6594C68.6041 29.619 68.5727 29.5988 68.5283 29.5988V32.8642H67.4653V28.0927H68.5283C68.687 28.0927 68.8291 28.1369 68.9548 28.2252C69.058 28.2987 69.1612 28.4127 69.2647 28.5672L71.0915 31.2921C71.1099 31.3363 71.1431 31.3582 71.191 31.3582V28.0927H72.254V32.8642ZM78.4826 32.8642H77.3143L76.9434 32.0698H74.4686L74.0976 32.8642H72.9294L74.9725 28.4954C75.1201 28.1753 75.3656 28.0156 75.7089 28.0156C75.8749 28.0156 76.0198 28.0569 76.1433 28.1395C76.2672 28.2223 76.3657 28.3409 76.4395 28.4954L78.4826 32.8642ZM76.5669 31.2756L75.803 29.5876C75.7806 29.5436 75.7495 29.5213 75.7089 29.5213C75.6607 29.5213 75.6274 29.5436 75.6092 29.5876L74.8451 31.2756H76.5669ZM82.3081 29.1519H80.4479V32.8642H79.3851V29.1519H77.5193V28.0927H82.3081V29.1519ZM83.9082 32.8642H82.8452V28.0927H83.9082V32.8642ZM89.6772 31.8051C89.6772 32.0921 89.5738 32.3402 89.3671 32.5498C89.1605 32.7594 88.9096 32.8642 88.6143 32.8642H85.9513C85.656 32.8642 85.4051 32.7614 85.1983 32.5555C84.9916 32.3493 84.8883 32.0993 84.8883 31.8051V29.1519C84.8883 28.8577 84.9916 28.6077 85.1983 28.4015C85.4051 28.1955 85.656 28.0927 85.9513 28.0927H88.6143C88.9096 28.0927 89.1605 28.1955 89.3671 28.4015C89.5738 28.6077 89.6772 28.8577 89.6772 29.1519V31.8051ZM88.6143 31.6949V29.2567C88.6143 29.2271 88.604 29.2024 88.5837 29.1822C88.5634 29.162 88.5387 29.1519 88.5091 29.1519H86.0565C86.0269 29.1519 86.0022 29.162 85.9819 29.1822C85.9616 29.2024 85.9513 29.2271 85.9513 29.2567V31.6949C85.9513 31.7278 85.9616 31.7546 85.9819 31.7748C86.0022 31.795 86.0269 31.8051 86.0565 31.8051H88.5091C88.5793 31.8051 88.6143 31.7683 88.6143 31.6949ZM95.4462 32.8642H94.3832C94.2208 32.8642 94.0786 32.82 93.9569 32.7318C93.8573 32.662 93.7539 32.5462 93.6469 32.3843L91.8142 29.6594C91.7959 29.619 91.7645 29.5988 91.7201 29.5988V32.8642H90.6571V28.0927H91.7201C91.8788 28.0927 92.0209 28.1369 92.1466 28.2252C92.2498 28.2987 92.3532 28.4127 92.4565 28.5672L94.2834 31.2921C94.302 31.3363 94.3352 31.3582 94.3832 31.3582V28.0927H95.4462V32.8642ZM101.674 32.8642H100.506L100.135 32.0698H97.6606L97.2898 32.8642H96.1216L98.1645 28.4954C98.312 28.1753 98.5575 28.0156 98.9007 28.0156C99.0667 28.0156 99.2117 28.0569 99.3351 28.1395C99.459 28.2223 99.5575 28.3409 99.6315 28.4954L101.674 32.8642ZM99.7587 31.2756L98.9948 29.5876C98.9726 29.5436 98.9413 29.5213 98.9007 29.5213C98.8526 29.5213 98.8194 29.5436 98.801 29.5876L98.037 31.2756H99.7587ZM106.07 32.8642H102.345V28.0927H103.408V31.8051H106.07V32.8642ZM113.267 31.8051C113.267 32.0955 113.163 32.345 112.955 32.5527C112.746 32.7606 112.496 32.8642 112.204 32.8642H109.01V31.8051H112.094C112.168 31.8051 112.204 31.7683 112.204 31.6949V31.1156C112.204 31.0421 112.168 31.0054 112.094 31.0054H110.073C109.778 31.0054 109.527 30.9022 109.32 30.6964C109.113 30.4905 109.01 30.2405 109.01 29.9463V29.1519C109.01 28.8577 109.113 28.6077 109.32 28.4015C109.527 28.1955 109.778 28.0927 110.073 28.0927H112.736V29.1519H110.178C110.149 29.1519 110.124 29.162 110.104 29.1822C110.083 29.2024 110.073 29.2271 110.073 29.2567V29.8414C110.073 29.8707 110.083 29.8955 110.104 29.9158C110.124 29.936 110.149 29.9463 110.178 29.9463H112.204C112.496 29.9463 112.746 30.0501 112.955 30.2578C113.163 30.4656 113.267 30.7148 113.267 31.0054V31.8051ZM118.317 32.8642H114.059V28.0927H118.317V29.1519H115.122V29.9463H118.051V31.0054H115.122V31.8051H118.317V32.8642ZM123.222 32.8642H122.159V31.1156C122.159 31.0421 122.122 31.0054 122.048 31.0054H120.027V32.8642H118.964V28.0927H122.159C122.447 28.0927 122.696 28.1955 122.906 28.4015C123.117 28.6077 123.222 28.8577 123.222 29.1519V29.9463C123.222 30.0491 123.204 30.1503 123.169 30.2496C123.134 30.3489 123.085 30.4243 123.023 30.4757C123.085 30.5271 123.134 30.6017 123.169 30.6992C123.204 30.7967 123.222 30.8986 123.222 31.0054V32.8642ZM122.159 29.8414V29.2567C122.159 29.1867 122.122 29.1519 122.048 29.1519H120.027V29.9463H122.048C122.081 29.9463 122.108 29.936 122.128 29.9158C122.149 29.8955 122.159 29.8707 122.159 29.8414ZM128.26 28.0927L126.693 32.4664C126.575 32.7834 126.348 32.9417 126.012 32.9417C125.846 32.9417 125.705 32.9 125.589 32.8175C125.472 32.7347 125.387 32.6178 125.331 32.4664L123.77 28.0927H124.938L125.918 31.0494C125.929 31.0936 125.961 31.1156 126.012 31.1156C126.06 31.1156 126.093 31.0936 126.112 31.0494L127.092 28.0927H128.26ZM130.076 32.8642H129.013V28.0927H130.076V32.8642ZM135.313 32.8642H132.119C131.823 32.8642 131.572 32.7614 131.366 32.5555C131.159 32.3493 131.056 32.0993 131.056 31.8051V29.1519C131.056 28.8577 131.159 28.6077 131.366 28.4015C131.572 28.1955 131.823 28.0927 132.119 28.0927H135.313V29.1519H132.224C132.194 29.1519 132.169 29.162 132.149 29.1822C132.129 29.2024 132.119 29.2271 132.119 29.2567V31.6949C132.119 31.7278 132.129 31.7546 132.149 31.7748C132.169 31.795 132.194 31.8051 132.224 31.8051H135.313V32.8642ZM140.097 32.8642H135.839V28.0927H140.097V29.1519H136.902V29.9463H139.831V31.0054H136.902V31.8051H140.097V32.8642ZM144.891 31.8051C144.891 32.0955 144.787 32.345 144.578 32.5527C144.37 32.7606 144.12 32.8642 143.828 32.8642H140.634V31.8051H143.718C143.791 31.8051 143.828 31.7683 143.828 31.6949V31.1156C143.828 31.0421 143.791 31.0054 143.718 31.0054H141.697C141.401 31.0054 141.151 30.9022 140.944 30.6964C140.737 30.4905 140.634 30.2405 140.634 29.9463V29.1519C140.634 28.8577 140.737 28.6077 140.944 28.4015C141.151 28.1955 141.401 28.0927 141.697 28.0927H144.359V29.1519H141.802C141.773 29.1519 141.747 29.162 141.727 29.1822C141.707 29.2024 141.697 29.2271 141.697 29.2567V29.8414C141.697 29.8707 141.707 29.8955 141.727 29.9158C141.747 29.936 141.773 29.9463 141.802 29.9463H143.828C144.12 29.9463 144.37 30.0501 144.578 30.2578C144.787 30.4656 144.891 30.7148 144.891 31.0054V31.8051Z" fill="white"/>
<path d="M65.2995 25.2196H50.8427L52.7262 21.2526H59.0786L55.2629 13.1329C55.1801 12.9812 55.0627 12.9055 54.9105 12.9055C54.717 12.9055 54.5925 12.9812 54.5371 13.1329L48.8761 25.2196H44.501L52.1526 8.85609C52.7056 7.65764 53.6248 7.05859 54.9105 7.05859C56.1823 7.05859 57.0948 7.65764 57.6477 8.85609L65.2995 25.2196ZM83.289 11.6704C82.1665 11.0247 81.782 9.59479 82.43 8.47654C83.078 7.35812 84.5131 6.97497 85.6355 7.62063C86.758 8.26629 87.1425 9.69623 86.4945 10.8147C85.8465 11.9329 84.4113 12.3161 83.289 11.6704Z" fill="white"/>
<path fill-rule="evenodd" clip-rule="evenodd" d="M72.01 8.25391V25.2206H67.3379V8.25391H72.01ZM79.4008 8.25391V25.2206H74.729V8.25391H79.4008ZM86.7916 12.8326V25.2206H82.1198V12.8326H86.7916ZM96.4418 20.574V25.3817C96.0588 25.4453 95.7099 25.4749 95.3951 25.4749C93.5271 25.4749 91.9742 24.8603 90.7275 23.6349C89.4808 22.4097 88.8594 20.8751 88.8594 19.0267C88.8594 17.229 89.4892 15.7071 90.7488 14.4564C92.0039 13.2058 93.5355 12.5782 95.3398 12.5782C97.3481 12.5782 98.931 13.1633 100.093 14.3376C101.25 15.5121 101.829 17.1146 101.829 19.1453V25.2206H97.1566V19.4803C97.1566 18.8273 96.9992 18.3058 96.6802 17.9158C96.3653 17.5299 95.9355 17.3349 95.3993 17.3349C94.9143 17.3349 94.4931 17.5131 94.1399 17.8692C93.7866 18.2253 93.6081 18.6449 93.6081 19.1326C93.6081 19.6456 93.7696 20.0696 94.0888 20.4003C94.4121 20.7308 94.8207 20.8962 95.3143 20.8962C95.7185 20.8962 96.0972 20.7903 96.4418 20.574ZM115.61 25.2206H110.938V18.2253C110.938 17.5131 110.649 17.1569 110.066 17.1569C109.492 17.1569 109.202 17.5131 109.202 18.2253V25.2206H104.53V18.3101C104.53 16.699 105.067 15.3382 106.139 14.2358C107.211 13.1294 108.522 12.5782 110.079 12.5782C111.853 12.5782 113.279 13.2185 114.351 14.5032C115.189 15.5035 115.61 16.8983 115.61 18.6831V25.2206ZM125.963 19.5185L130.588 19.3446C130.456 21.1294 129.788 22.6006 128.584 23.7494C127.379 24.8985 125.912 25.4749 124.184 25.4749C122.354 25.4749 120.814 24.8433 119.555 23.5756C118.295 22.308 117.665 20.7563 117.665 18.9206C117.665 17.174 118.299 15.6817 119.572 14.4394C120.844 13.1973 122.367 12.5782 124.146 12.5782C125.699 12.5782 127.069 13.0658 128.26 14.0408C129.447 15.0203 130.188 16.2624 130.477 17.7758L125.754 17.9498C125.346 17.4199 124.831 17.1569 124.209 17.1569C123.678 17.1569 123.239 17.3308 122.899 17.6785C122.559 18.0262 122.388 18.4671 122.388 18.9969C122.388 19.5353 122.567 19.9847 122.929 20.3494C123.29 20.714 123.742 20.8962 124.282 20.8962C125.069 20.8962 125.631 20.4385 125.963 19.5185ZM144.833 19.7771H137.766C137.668 19.4208 137.617 19.0987 137.617 18.8019C137.617 18.3908 137.689 17.9837 137.829 17.5894H140.2C140.034 16.6567 139.515 16.1903 138.642 16.1903C138.059 16.1903 137.587 16.4362 137.221 16.9323C136.855 17.424 136.672 18.0599 136.672 18.8317C136.672 19.6371 136.847 20.2858 137.2 20.786C137.553 21.2821 138.017 21.5322 138.591 21.5322C139.055 21.5322 139.506 21.299 139.936 20.8326L142.591 24.0165C141.353 24.9874 139.974 25.4749 138.459 25.4749C136.617 25.4749 135.064 24.856 133.809 23.6222C132.553 22.3844 131.924 20.8581 131.924 19.0308C131.924 17.2164 132.558 15.6817 133.826 14.431C135.098 13.1803 136.655 12.5528 138.502 12.5528C140.306 12.5528 141.825 13.1633 143.05 14.3885C144.28 15.6096 144.893 17.1146 144.893 18.908C144.893 19.0903 144.871 19.3785 144.833 19.7771Z" fill="white"/>
<path fill-rule="evenodd" clip-rule="evenodd" d="M10.0381 37.3173C0.438982 31.7953 -2.84994 19.5661 2.69224 10.0017C8.23442 0.437118 20.5082 -2.8395 30.1075 2.68253C39.7067 8.20438 42.9956 20.4335 37.4534 29.9981C31.911 39.5627 19.6375 42.8393 10.0381 37.3173ZM34.1564 32.2975H14.5778L17.1288 26.9251H25.7315L20.5644 15.9286C20.4519 15.7235 20.2927 15.6209 20.0868 15.6209C19.8247 15.6209 19.6562 15.7235 19.5816 15.9286L11.9149 32.2975H5.98924L16.352 10.1367C17.1006 8.51385 18.3456 7.70232 20.0868 7.70232C21.8094 7.70232 23.0449 8.51385 23.7937 10.1367L34.1564 32.2975Z" fill="white"/>
<path d="M148.229 10.3294V7.64514H147.712V7.05859H149.51V7.64514H148.994V10.3294H148.229ZM149.787 10.3294V7.05859H150.895L151.335 9.63986L151.797 7.05859H152.889V10.3294H152.196L152.243 7.56529L151.733 10.3294H150.886L150.393 7.56529L150.448 10.3294H149.787Z" fill="white"/>
</g>
<defs>
<clipPath id="clip0_4_701">
<rect width="152.889" height="40" fill="white"/>
</clipPath>
</defs>
</svg>
