<svg width="28" height="28" viewBox="0 0 28 28" fill="none" xmlns="http://www.w3.org/2000/svg">
<path d="M10.9132 24.5002C11.7359 25.2263 12.8165 25.6668 14 25.6668C15.1836 25.6668 16.2642 25.2263 17.0868 24.5002M21 9.3335C21 7.47698 20.2625 5.6965 18.9498 4.38375C17.637 3.07099 15.8566 2.3335 14 2.3335C12.1435 2.3335 10.363 3.07099 9.0503 4.38375C7.73754 5.6965 7.00004 7.47698 7.00004 9.3335C7.00004 12.9387 6.09059 15.4071 5.07465 17.0398C4.21769 18.417 3.78921 19.1056 3.80492 19.2977C3.82232 19.5104 3.86738 19.5915 4.03878 19.7187C4.19358 19.8335 4.8914 19.8335 6.28704 19.8335H21.713C23.1087 19.8335 23.8065 19.8335 23.9613 19.7187C24.1327 19.5915 24.1778 19.5104 24.1952 19.2977C24.2109 19.1056 23.7824 18.417 22.9254 17.0398C21.9095 15.4071 21 12.9387 21 9.3335Z" stroke="#008DD2" stroke-width="2.33333" stroke-linecap="round" stroke-linejoin="round"/>
</svg>
