<svg width="28" height="28" viewBox="0 0 28 28" fill="none" xmlns="http://www.w3.org/2000/svg">
<path d="M10.9132 24.5002C11.7358 25.2263 12.8165 25.6668 14 25.6668C15.1835 25.6668 16.2641 25.2263 17.0868 24.5002M21 9.3335C21 7.47698 20.2625 5.6965 18.9497 4.38375C17.637 3.07099 15.8565 2.3335 14 2.3335C12.1435 2.3335 10.363 3.07099 9.05023 4.38375C7.73748 5.6965 6.99998 7.47698 6.99998 9.3335C6.99998 12.9387 6.09053 15.4071 5.07459 17.0398C4.21763 18.417 3.78915 19.1056 3.80486 19.2977C3.82226 19.5104 3.86732 19.5915 4.03872 19.7187C4.19352 19.8335 4.89134 19.8335 6.28698 19.8335H21.713C23.1086 19.8335 23.8064 19.8335 23.9612 19.7187C24.1326 19.5915 24.1777 19.5104 24.1951 19.2977C24.2108 19.1056 23.7823 18.417 22.9254 17.0398C21.9094 15.4071 21 12.9387 21 9.3335Z" stroke="#008DD2" stroke-width="2.33333" stroke-linecap="round" stroke-linejoin="round"/>
</svg>
