<svg width="12" height="12" viewBox="0 0 12 12" fill="none" xmlns="http://www.w3.org/2000/svg">
<path d="M11.6526 0.347089C11.4646 0.159043 11.1587 0.159043 10.9695 0.347089L6.00056 5.31601L1.03164 0.347089C0.843599 0.159043 0.537728 0.159043 0.348492 0.347089C0.160447 0.535134 0.160447 0.841005 0.348492 1.03024L5.31741 5.99916L0.348492 10.9681C0.160447 11.1561 0.160447 11.462 0.348492 11.6512C0.536538 11.8393 0.842409 11.8393 1.03164 11.6512L6.00056 6.68231L10.9695 11.6512C11.1575 11.8393 11.4634 11.8393 11.6526 11.6512C11.8407 11.4632 11.8407 11.1573 11.6526 10.9681L6.68371 5.99916L11.6526 1.03024C11.8407 0.841005 11.8407 0.536324 11.6526 0.347089Z" fill="#008DD2"/>
</svg>
