<svg width="24" height="24" viewBox="0 0 24 24" fill="none" xmlns="http://www.w3.org/2000/svg">
<path fill-rule="evenodd" clip-rule="evenodd" d="M15.4497 20.9857C15.372 20.9949 15.2935 20.9999 15.2145 20.9999H4.9286C4.41688 20.9999 3.92637 20.7968 3.56508 20.4349C3.20315 20.0739 3 19.5833 3 19.0718V4.92802C3 4.41656 3.20315 3.92598 3.56508 3.56495C3.92637 3.20308 4.41688 3 4.9286 3H15.2145C15.7262 3 16.2167 3.20308 16.578 3.56495C16.9399 3.92598 17.1431 4.41656 17.1431 4.92802V9.57299C17.2626 9.60056 17.3822 9.63149 17.5005 9.66659C17.784 9.751 17.9736 10.0168 17.9601 10.3118C17.9601 10.3118 17.9203 11.2152 17.9196 11.2144C18.0463 11.2804 18.1697 11.3514 18.2899 11.4283L19.0517 10.9419C19.3005 10.7831 19.6258 10.814 19.8399 11.0171C20.6512 11.7877 21.222 12.7763 21.483 13.8636C21.5525 14.1511 21.4168 14.4478 21.1545 14.584L20.3522 15.001C20.3593 15.1431 20.3593 15.286 20.3522 15.4272L21.1545 15.8443C21.4168 15.9805 21.5525 16.278 21.483 16.5647C21.222 17.6528 20.6512 18.6415 19.8399 19.4112C19.6258 19.6142 19.3005 19.646 19.0517 19.4864L18.2899 19C18.1697 19.0777 18.0463 19.1487 17.9203 19.2139L17.9601 20.1165C17.9736 20.4115 17.784 20.6781 17.5005 20.7617C16.8326 20.9598 16.1376 21.0341 15.4497 20.9857ZM15.8573 9.42841V4.92802C15.8573 4.75753 15.7898 4.59457 15.669 4.47422C15.5487 4.35304 15.3848 4.28535 15.2145 4.28535H4.9286C4.75824 4.28535 4.59431 4.35304 4.47409 4.47422C4.35323 4.59457 4.28573 4.75753 4.28573 4.92802V19.0718C4.28573 19.2423 4.35323 19.4053 4.47409 19.5256C4.59431 19.6468 4.75824 19.7145 4.9286 19.7145H13.7725C13.7828 19.4738 13.7944 19.2139 13.795 19.2139C13.6684 19.1487 13.5449 19.0769 13.4247 19L12.6629 19.4864C12.4141 19.646 12.0888 19.6142 11.8748 19.4112C11.0635 18.6415 10.4926 17.6528 10.2316 16.5647C10.1622 16.278 10.2978 15.9805 10.5601 15.8443C10.5601 15.8443 11.3624 15.4272 11.3624 15.4281C11.3553 15.2852 11.3553 15.1431 11.3624 15.001L10.5601 14.584C10.2978 14.4478 10.1622 14.1511 10.2316 13.8636C10.4926 12.7763 11.0635 11.7877 11.8748 11.0171C12.0888 10.814 12.4141 10.7831 12.6629 10.9419L13.4247 11.4283C13.5449 11.3514 13.6684 11.2804 13.7944 11.2152L13.7545 10.3118C13.741 10.0168 13.9307 9.751 14.2142 9.66659C14.7503 9.5078 15.3038 9.42841 15.8573 9.42841ZM6.21433 13.2853C5.85947 13.2853 5.57147 12.9978 5.57147 12.6426C5.57147 12.2883 5.85947 11.9999 6.21433 11.9999H8.7858C9.14066 11.9999 9.42866 12.2883 9.42866 12.6426C9.42866 12.9978 9.14066 13.2853 8.7858 13.2853H6.21433ZM6.21433 10.7146C5.85947 10.7146 5.57147 10.4263 5.57147 10.0711C5.57147 9.71673 5.85947 9.42841 6.21433 9.42841H12.0001C12.355 9.42841 12.643 9.71673 12.643 10.0711C12.643 10.4263 12.355 10.7146 12.0001 10.7146H6.21433ZM6.21433 15.8568C5.85947 15.8568 5.57147 15.5693 5.57147 15.2141C5.57147 14.8598 5.85947 14.5715 6.21433 14.5715H9.10723C9.46209 14.5715 9.7501 14.8598 9.7501 15.2141C9.7501 15.5693 9.46209 15.8568 9.10723 15.8568H6.21433ZM6.21433 6.85688C5.85947 6.85688 5.57147 6.56855 5.57147 6.2142C5.57147 5.85902 5.85947 5.57153 6.21433 5.57153H8.7858C9.14066 5.57153 9.42866 5.85902 9.42866 6.2142C9.42866 6.56855 9.14066 6.85688 8.7858 6.85688H6.21433ZM6.21433 18.4283C5.85947 18.4283 5.57147 18.1409 5.57147 17.7857C5.57147 17.4313 5.85947 17.143 6.21433 17.143H8.7858C9.14066 17.143 9.42866 17.4313 9.42866 17.7857C9.42866 18.1409 9.14066 18.4283 8.7858 18.4283H6.21433ZM15.8573 14.3141C15.3604 14.3141 14.9573 14.7177 14.9573 15.2141C14.9573 15.7114 15.3604 16.1142 15.8573 16.1142C16.3543 16.1142 16.7573 15.7114 16.7573 15.2141C16.7573 14.7177 16.3543 14.3141 15.8573 14.3141Z" fill="white"/>
</svg>
