<svg width="24" height="24" viewBox="0 0 24 24" fill="none" xmlns="http://www.w3.org/2000/svg">
<path fill-rule="evenodd" clip-rule="evenodd" d="M7.06474 2.5H16.9353C17.2942 2.49999 17.6038 2.49998 17.8601 2.51747C18.13 2.53588 18.3999 2.57638 18.6666 2.68684C19.268 2.93596 19.7459 3.4138 19.995 4.01523C20.1054 4.2819 20.1459 4.55183 20.1643 4.82169C20.1818 5.07799 20.1818 5.38766 20.1818 5.74655V5.7989C20.1818 6.1578 20.1818 6.46747 20.1643 6.72377C20.1459 6.99363 20.1054 7.26356 19.995 7.53022C19.7459 8.13166 19.268 8.60949 18.6666 8.85861C18.3999 8.96907 18.13 9.00957 17.8601 9.02799C17.6038 9.04547 17.2942 9.04547 16.9353 9.04546L12.8182 9.04545V11.5H14.652C15.3106 11.5 15.8541 11.5 16.2969 11.5362C16.7568 11.5737 17.1796 11.6544 17.5767 11.8567C18.1925 12.1705 18.6932 12.6711 19.0069 13.2869C19.2093 13.684 19.2899 14.1068 19.3275 14.5667C19.3544 14.8967 19.3613 15.2826 19.363 15.7304C20.3167 16.0672 21 16.9765 21 18.0455C21 19.4011 19.9011 20.5 18.5455 20.5C17.1898 20.5 16.0909 19.4011 16.0909 18.0455C16.0909 16.977 16.7736 16.068 17.7266 15.7308C17.7248 15.2984 17.7186 14.9701 17.6965 14.6999C17.6672 14.3412 17.6141 14.1578 17.5489 14.0298C17.392 13.7219 17.1417 13.4716 16.8338 13.3147C16.7058 13.2495 16.5224 13.1964 16.1637 13.1671C15.7954 13.137 15.319 13.1364 14.6182 13.1364H12.8182V15.7306C13.7715 16.0675 14.4545 16.9767 14.4545 18.0455C14.4545 19.4011 13.3556 20.5 12 20.5C10.6444 20.5 9.54545 19.4011 9.54545 18.0455C9.54545 16.9767 10.2285 16.0675 11.1818 15.7306V13.1364H9.38182C8.68098 13.1364 8.20456 13.137 7.8363 13.1671C7.4776 13.1964 7.29416 13.2495 7.1662 13.3147C6.8583 13.4716 6.60796 13.7219 6.45108 14.0298C6.38588 14.1578 6.33276 14.3412 6.30345 14.6999C6.28138 14.9701 6.27516 15.2984 6.27341 15.7308C7.22639 16.068 7.90909 16.977 7.90909 18.0455C7.90909 19.4011 6.81015 20.5 5.45455 20.5C4.09894 20.5 3 19.4011 3 18.0455C3 16.9765 3.68331 16.0672 4.63695 15.7304C4.6387 15.2826 4.64556 14.8967 4.67252 14.5667C4.7101 14.1068 4.79074 13.684 4.99307 13.2869C5.30684 12.6711 5.8075 12.1705 6.4233 11.8567C6.8204 11.6544 7.24315 11.5737 7.70305 11.5362C8.14585 11.5 8.68943 11.5 9.34805 11.5H11.1818V9.04545L7.06474 9.04546C6.70584 9.04547 6.39617 9.04547 6.13987 9.02799C5.87001 9.00957 5.60008 8.96907 5.33341 8.85861C4.73198 8.60949 4.25414 8.13166 4.00502 7.53022C3.89457 7.26356 3.85406 6.99363 3.83565 6.72377C3.81816 6.46747 3.81817 6.15779 3.81818 5.7989V5.74656C3.81817 5.38766 3.81816 5.07799 3.83565 4.82169C3.85406 4.55183 3.89457 4.2819 4.00502 4.01523C4.25414 3.4138 4.73198 2.93596 5.33341 2.68684C5.60008 2.57638 5.87001 2.53588 6.13987 2.51747C6.39617 2.49998 6.70584 2.49999 7.06474 2.5ZM16.9091 7.40909C17.3015 7.40909 17.5548 7.40865 17.7487 7.39542C17.9353 7.38269 18.0063 7.36091 18.0404 7.34681C18.2409 7.26377 18.4001 7.10449 18.4832 6.90401C18.4973 6.86997 18.5191 6.79892 18.5318 6.61238C18.545 6.41849 18.5455 6.16515 18.5455 5.77273C18.5455 5.38031 18.545 5.12697 18.5318 4.93308C18.5191 4.74653 18.4973 4.67549 18.4832 4.64144C18.4001 4.44096 18.2409 4.28169 18.0404 4.19864C18.0063 4.18454 17.9353 4.16276 17.7487 4.15004C17.5548 4.13681 17.3015 4.13636 16.9091 4.13636H7.09091C6.69849 4.13636 6.44515 4.13681 6.25126 4.15004C6.06471 4.16276 5.99367 4.18454 5.95962 4.19864C5.75914 4.28169 5.59987 4.44096 5.51683 4.64144C5.50272 4.67549 5.48095 4.74653 5.46822 4.93308C5.45499 5.12697 5.45455 5.38031 5.45455 5.77273C5.45455 6.16515 5.45499 6.41849 5.46822 6.61238C5.48095 6.79892 5.50272 6.86997 5.51683 6.90401C5.59987 7.10449 5.75914 7.26377 5.95962 7.34681C5.99367 7.36091 6.06471 7.38269 6.25126 7.39542C6.44515 7.40865 6.69849 7.40909 7.09091 7.40909H16.9091ZM5.45455 17.2273C5.00268 17.2273 4.63636 17.5936 4.63636 18.0455C4.63636 18.4973 5.00268 18.8636 5.45455 18.8636C5.90641 18.8636 6.27273 18.4973 6.27273 18.0455C6.27273 17.5936 5.90641 17.2273 5.45455 17.2273ZM12 17.2273C11.5481 17.2273 11.1818 17.5936 11.1818 18.0455C11.1818 18.4973 11.5481 18.8636 12 18.8636C12.4519 18.8636 12.8182 18.4973 12.8182 18.0455C12.8182 17.5936 12.4519 17.2273 12 17.2273ZM18.5455 17.2273C18.0936 17.2273 17.7273 17.5936 17.7273 18.0455C17.7273 18.4973 18.0936 18.8636 18.5455 18.8636C18.9973 18.8636 19.3636 18.4973 19.3636 18.0455C19.3636 17.5936 18.9973 17.2273 18.5455 17.2273Z" fill="white"/>
</svg>
