<svg width="21" height="24" viewBox="0 0 21 24" fill="none" xmlns="http://www.w3.org/2000/svg">
<path d="M20.6985 4.45301C20.5405 4.17971 20.2483 4.01044 19.9325 4.01044L15.5094 4.01138V3.12718C15.5094 2.4236 15.2295 1.74838 14.732 1.25094C14.2346 0.752567 13.5603 0.472656 12.8558 0.472656H7.54859C6.84501 0.472656 6.16978 0.752567 5.67235 1.25C5.17492 1.74743 4.89501 2.42266 4.89501 3.12624V4.01044L0.884459 4.01139C0.568598 4.01139 0.276389 4.17972 0.118446 4.45396C-0.0394821 4.72726 -0.0394821 5.06486 0.118446 5.33816C0.276375 5.61146 0.568598 5.78074 0.884459 5.78074H1.35635V19.0497C1.3573 20.2224 1.82447 21.3468 2.65384 22.1752C3.48321 23.0045 4.60667 23.4708 5.77928 23.4727H14.6252C15.7979 23.4717 16.9223 23.0045 17.7506 22.1752C18.58 21.3458 19.0462 20.2223 19.0481 19.0497V5.78074H19.9323C20.2482 5.78074 20.5404 5.61241 20.6983 5.33816C20.8563 5.06392 20.8564 4.72726 20.6985 4.45301ZM6.66446 3.12621C6.66446 2.89168 6.75808 2.66662 6.92357 2.50112C7.08906 2.33563 7.31414 2.24201 7.54866 2.24201H12.8559C13.0904 2.24201 13.3155 2.33563 13.481 2.50112C13.6465 2.66661 13.7401 2.89169 13.7401 3.12621V4.01041L6.66436 4.01136L6.66446 3.12621ZM17.2789 19.0488C17.2789 19.7524 16.999 20.4276 16.5015 20.925C16.0041 21.4225 15.3289 21.7024 14.6253 21.7024H5.77938C5.0758 21.7024 4.40058 21.4225 3.90314 20.925C3.40571 20.4276 3.1258 19.7524 3.1258 19.0488V5.77981H17.2789L17.2789 19.0488Z" fill="#D20D00"/>
<path d="M7.10569 18.045C7.37899 18.2029 7.7166 18.2029 7.9899 18.045C8.2632 17.8871 8.43247 17.5949 8.43247 17.279V10.2026C8.43247 9.96803 8.33885 9.74297 8.17336 9.57747C8.00786 9.41198 7.78278 9.31836 7.54827 9.31836C7.31375 9.31836 7.08867 9.41198 6.92318 9.57747C6.75768 9.74297 6.66406 9.96805 6.66406 10.2026V17.279C6.66406 17.5958 6.83239 17.8871 7.10569 18.045Z" fill="#D20D00"/>
<path d="M12.4153 18.045C12.6886 18.2029 13.0262 18.2029 13.2995 18.045C13.5728 17.8871 13.742 17.5949 13.742 17.279V10.2026C13.742 9.96803 13.6484 9.74297 13.4829 9.57747C13.3174 9.41198 13.0924 9.31836 12.8578 9.31836C12.6233 9.31836 12.3982 9.41198 12.2328 9.57747C12.0673 9.74297 11.9736 9.96805 11.9736 10.2026V17.279C11.9727 17.5958 12.141 17.8871 12.4153 18.045Z" fill="#D20D00"/>
</svg>
