<svg width="24" height="24" viewBox="0 0 24 24" fill="none" xmlns="http://www.w3.org/2000/svg">
<path d="M14.5685 14.4435H9.62726C9.56937 14.4431 9.51238 14.4292 9.46079 14.4029C9.4092 14.3766 9.36444 14.3387 9.33005 14.2921C9.29565 14.2456 9.27257 14.1916 9.26262 14.1346C9.25268 14.0776 9.25615 14.019 9.27275 13.9635C9.41599 13.4838 9.67889 13.0484 10.0367 12.6983C10.3945 12.3481 10.8355 12.0947 11.3182 11.9619C10.9068 11.702 10.6318 11.2467 10.6318 10.7242C10.6318 10.3353 10.7863 9.96231 11.0613 9.68731C11.3363 9.41231 11.7093 9.25781 12.0982 9.25781C12.4871 9.25781 12.8601 9.41231 13.1351 9.68731C13.4101 9.96231 13.5646 10.3353 13.5646 10.7242C13.5646 11.2467 13.2897 11.702 12.8782 11.9619C13.3608 12.0948 13.8017 12.3483 14.1594 12.6984C14.5171 13.0486 14.7799 13.4839 14.923 13.9635C14.9396 14.019 14.9431 14.0776 14.9332 14.1346C14.9232 14.1916 14.9001 14.2456 14.8657 14.2921C14.8313 14.3387 14.7866 14.3766 14.735 14.4029C14.6834 14.4292 14.6264 14.4431 14.5685 14.4435Z" fill="white"/>
<path fill-rule="evenodd" clip-rule="evenodd" d="M9.43478 4.51373C9.57038 3.63605 10.321 3 11.2046 3H12.7954C13.679 3 14.4296 3.63604 14.5652 4.5137L14.6108 4.78737C14.828 4.86625 15.0421 4.95569 15.2516 5.05456L15.4748 4.88971C16.1799 4.37579 17.1835 4.43888 17.8082 5.07385C17.8089 5.07451 17.8095 5.07517 17.8102 5.07584L18.9363 6.2088C18.9366 6.20908 18.9369 6.20935 18.9372 6.20962C19.5619 6.83519 19.6346 7.81306 19.1187 8.52303C19.1182 8.52376 19.1177 8.52449 19.1171 8.52522L18.9531 8.75332C19.0498 8.9621 19.1374 9.17473 19.216 9.39117L19.4879 9.43399C19.4886 9.43409 19.4892 9.43419 19.4898 9.43428C20.3648 9.56891 21 10.3223 21 11.2046V12.8091C21 13.6904 20.3604 14.4344 19.4982 14.5781L19.4914 14.5792L19.2158 14.6226C19.137 14.8389 19.0487 15.052 18.9502 15.2615L19.1084 15.479C19.6356 16.1903 19.563 17.1796 18.9282 17.8062L17.8066 18.9347L17.8049 18.9363C17.1782 19.563 16.1915 19.6345 15.4816 19.1171L15.2532 18.9503C15.0418 19.0492 14.8273 19.1376 14.6114 19.2163L14.5651 19.4939C14.4288 20.3667 13.6763 21 12.7954 21H11.2046C10.3237 21 9.57118 20.3667 9.4349 19.4938L9.38864 19.2163C9.17267 19.1376 8.95817 19.0492 8.74682 18.9503L8.51898 19.1167C7.80589 19.6364 6.82959 19.5589 6.20031 18.9415L6.19339 18.9347L5.07179 17.8062C4.43699 17.1796 4.36441 16.1903 4.89158 15.4791L5.04981 15.2615C4.95134 15.052 4.863 14.8389 4.78421 14.6226L4.50174 14.5781C3.63957 14.4344 3 13.6904 3 12.8091V11.2046C3 10.3199 3.63765 9.5685 4.51703 9.43428L4.78376 9.3919C4.86239 9.17521 4.95011 8.96233 5.04687 8.75332L4.88122 8.52296C4.36548 7.81303 4.43807 6.83528 5.06274 6.20972L6.19187 5.07375C6.81841 4.43701 7.81254 4.37893 8.52023 4.88611L8.52473 4.88934L8.74841 5.05456C8.95791 4.95569 9.17197 4.86625 9.38918 4.78737L9.43478 4.51373ZM11.2046 4.54286C11.0756 4.54286 10.9775 4.6304 10.9594 4.75037L10.9585 4.75632L10.7539 5.98379L10.2851 6.11775C9.86483 6.23781 9.44577 6.41342 9.04804 6.6337L8.61455 6.87379L7.61838 6.13798C7.50452 6.05862 7.36368 6.08239 7.29132 6.15616L7.28771 6.15984L6.15627 7.29812L6.15462 7.29977C6.06766 7.38673 6.05779 7.51781 6.12971 7.6165L6.13261 7.62047L6.85299 8.62228L6.62436 9.04688C6.40962 9.44569 6.23787 9.86272 6.10889 10.2988L5.97085 10.7655L4.75038 10.9594C4.6304 10.9775 4.54286 11.0756 4.54286 11.2046V12.8091C4.54286 12.9283 4.62907 13.034 4.75309 13.0558L5.97063 13.2475L6.10889 13.7149C6.23783 14.1509 6.40865 14.5649 6.62684 14.9588L6.86498 15.3888L6.13159 16.3972C6.05987 16.4934 6.06912 16.6233 6.15626 16.7088L6.16318 16.7156L7.28326 17.8426C7.38055 17.9359 7.51413 17.9397 7.60937 17.8705C7.60927 17.8706 7.60946 17.8704 7.60937 17.8705L8.61711 17.1345L9.04804 17.3732C9.44007 17.5903 9.86136 17.7619 10.2948 17.892L10.7551 18.03L10.9592 19.2549C10.9763 19.3664 11.0726 19.4571 11.2046 19.4571H12.7954C12.9274 19.4571 13.0238 19.3664 13.0408 19.2549L13.0424 19.2446L13.2449 18.03L13.7052 17.892C14.1386 17.7619 14.5599 17.5903 14.952 17.3732L15.3829 17.1345L16.3904 17.8703C16.3902 17.8702 16.3905 17.8704 16.3904 17.8703C16.4894 17.9421 16.6272 17.9317 16.7135 17.8458C16.7133 17.846 16.7136 17.8457 16.7135 17.8458L17.8437 16.7087C17.9308 16.6232 17.9402 16.4933 17.8685 16.3972L17.8629 16.3898L17.135 15.3888L17.3732 14.9588C17.5914 14.5649 17.7622 14.1509 17.8911 13.7149L18.0294 13.2475L19.2469 13.0558C19.3709 13.034 19.4571 12.9283 19.4571 12.8091V11.2046C19.4571 11.0726 19.3664 10.9762 19.2549 10.9592L19.2515 10.9586L18.0294 10.7662L17.8911 10.2988C17.7621 9.86272 17.5904 9.44569 17.3756 9.04688L17.147 8.62228L17.8703 7.61649C17.9422 7.5178 17.9323 7.38673 17.8454 7.29977L17.8437 7.29812L16.7087 6.15617C16.6341 6.08018 16.488 6.06146 16.3848 6.13563C16.3844 6.13594 16.3839 6.13625 16.3835 6.13657L15.3855 6.87379L14.952 6.6337C14.5542 6.41342 14.1352 6.23781 13.7149 6.11775L13.2461 5.98379L13.0415 4.75632L13.0406 4.75037C13.0225 4.6304 12.9244 4.54286 12.7954 4.54286H11.2046Z" fill="white"/>
</svg>
