<svg width="24" height="24" viewBox="0 0 24 24" fill="none" xmlns="http://www.w3.org/2000/svg">
<path fill-rule="evenodd" clip-rule="evenodd" d="M13.1818 4.15265C13.0299 4.13881 12.8047 4.13641 12.3733 4.13641H9.74544C9.04461 4.13641 8.56819 4.13705 8.19993 4.16713C7.84123 4.19644 7.65779 4.24956 7.52983 4.31476C7.22193 4.47165 6.9716 4.72198 6.81471 5.02988C6.74951 5.15784 6.69639 5.34128 6.66708 5.69998C6.637 6.06824 6.63636 6.54466 6.63636 7.24549V15.7546C6.63636 16.4554 6.637 16.9318 6.66708 17.3001C6.69639 17.6588 6.74951 17.8422 6.81471 17.9702C6.9716 18.2781 7.22193 18.5284 7.52983 18.6853C7.65779 18.7505 7.84123 18.8036 8.19993 18.8329C8.56819 18.863 9.04461 18.8636 9.74544 18.8636H14.9818C15.6826 18.8636 16.159 18.863 16.5273 18.8329C16.886 18.8036 17.0694 18.7505 17.1974 18.6853C17.5053 18.5284 17.7556 18.2781 17.9125 17.9702C17.9777 17.8422 18.0308 17.6588 18.0601 17.3001C18.0902 16.9318 18.0909 16.4554 18.0909 15.7546V9.85403C18.0909 9.42261 18.0885 9.19748 18.0746 9.04555L15.283 9.04555C15.0765 9.04557 14.8754 9.0456 14.7051 9.03168C14.518 9.0164 14.2973 8.98035 14.0753 8.86719C13.7674 8.71031 13.517 8.45998 13.3601 8.15208C13.247 7.93001 13.2109 7.70931 13.1957 7.52228C13.1817 7.35197 13.1818 7.15086 13.1818 6.94436L13.1818 4.15265ZM14.322 2.78639C14.1372 2.70354 13.9448 2.6379 13.7473 2.59048C13.3687 2.49959 12.9761 2.49978 12.4566 2.50003C12.4292 2.50004 12.4014 2.50005 12.3733 2.50005L9.71165 2.50005C9.05304 2.50004 8.50947 2.50003 8.06668 2.53621C7.60678 2.57378 7.18403 2.65443 6.78694 2.85676C6.17113 3.17052 5.67047 3.67119 5.35671 4.28699C5.15438 4.68408 5.07373 5.10683 5.03616 5.56673C4.99998 6.00953 4.99999 6.55309 5 7.2117V15.7883C4.99999 16.447 4.99998 16.9905 5.03616 17.4333C5.07373 17.8932 5.15438 18.316 5.35671 18.7131C5.67047 19.3289 6.17113 19.8295 6.78694 20.1433C7.18403 20.3456 7.60678 20.4263 8.06668 20.4638C8.50947 20.5 9.05303 20.5 9.71163 20.5H15.0156C15.6742 20.5 16.2178 20.5 16.6606 20.4638C17.1204 20.4263 17.5432 20.3456 17.9403 20.1433C18.5561 19.8295 19.0568 19.3289 19.3705 18.7131C19.5729 18.316 19.6535 17.8932 19.6911 17.4333C19.7272 16.9905 19.7272 16.447 19.7272 15.7884V9.85403C19.7272 9.82589 19.7272 9.79811 19.7273 9.77069C19.7275 9.25114 19.7277 8.85858 19.6368 8.48001C19.5895 8.28305 19.5241 8.09121 19.4416 7.90688C19.4365 7.89487 19.4311 7.88301 19.4254 7.8713C19.372 7.75562 19.3117 7.64299 19.245 7.53402C19.0415 7.20206 18.7638 6.92461 18.3963 6.55741C18.3769 6.53803 18.3572 6.5184 18.3373 6.4985L15.7288 3.88996C15.7089 3.87005 15.6892 3.8504 15.6699 3.831C15.3027 3.46345 15.0252 3.18574 14.6933 2.98232C14.5839 2.91527 14.4708 2.85482 14.3546 2.8012C14.3438 2.79604 14.333 2.79109 14.322 2.78639ZM14.8182 5.29349V6.91828C14.8182 7.16089 14.8188 7.29364 14.8266 7.38903C14.8269 7.39283 14.8272 7.39642 14.8275 7.39982C14.8309 7.40013 14.8345 7.40045 14.8383 7.40076C14.9337 7.40855 15.0665 7.40919 15.3091 7.40919H16.9339L14.8182 5.29349ZM11.3058 11.3306C11.6253 11.6501 11.6253 12.1681 11.3058 12.4877L9.83889 13.9546L11.3058 15.4215C11.6253 15.741 11.6253 16.259 11.3058 16.5786C10.9863 16.8981 10.4682 16.8981 10.1487 16.5786L8.10327 14.5331C7.78375 14.2136 7.78375 13.6955 8.10327 13.376L10.1487 11.3306C10.4682 11.0111 10.9863 11.0111 11.3058 11.3306ZM13.4214 12.4877C13.1019 12.1681 13.1019 11.6501 13.4214 11.3306C13.741 11.0111 14.259 11.0111 14.5785 11.3306L16.624 13.376C16.9435 13.6955 16.9435 14.2136 16.624 14.5331L14.5785 16.5786C14.259 16.8981 13.741 16.8981 13.4214 16.5786C13.1019 16.259 13.1019 15.741 13.4214 15.4215L14.8883 13.9546L13.4214 12.4877Z" fill="white"/>
</svg>
