<svg width="41" height="41" viewBox="0 0 41 41" fill="none" xmlns="http://www.w3.org/2000/svg">
<path d="M20.3633 8.05908C15.6878 8.05908 11.8823 11.8646 11.8823 16.5401C11.8823 21.2156 15.6878 25.0211 20.3633 25.0211C25.0388 25.0211 28.8443 21.2156 28.8443 16.5401C28.8443 11.8646 25.0388 8.05908 20.3633 8.05908ZM20.3633 22.7759C16.9283 22.7759 14.1275 19.9807 14.1275 16.5401C14.1275 13.0994 16.9226 10.3042 20.3633 10.3042C23.804 10.3042 26.5992 13.105 26.5992 16.5401C26.5992 19.9751 23.7984 22.7759 20.3633 22.7759Z" fill="#008DD2"/>
<path d="M20.47 0C9.18259 0 0 9.18259 0 20.47C0 31.7574 9.18259 40.94 20.47 40.94C31.7574 40.94 40.94 31.7574 40.94 20.47C40.94 9.18259 31.7574 0 20.47 0ZM8.20596 33.9352C11.568 30.865 15.8787 29.1867 20.47 29.1867C25.0501 29.1867 29.372 30.865 32.734 33.9352C29.4954 36.8875 25.1848 38.6949 20.47 38.6949C15.7496 38.6949 11.4446 36.8931 8.20596 33.9352ZM34.2944 32.3243C30.5114 28.85 25.6338 26.9472 20.47 26.9472C15.2894 26.9472 10.4286 28.85 6.64559 32.3243C3.90653 29.1362 2.25075 24.9939 2.25075 20.47C2.25075 10.423 10.4286 2.24513 20.4756 2.24513C30.5226 2.24513 38.6949 10.423 38.6949 20.47C38.6949 24.9939 37.0335 29.1306 34.2944 32.3243Z" fill="#008DD2"/>
</svg>
