<svg width="36" height="36" viewBox="0 0 36 36" fill="none" xmlns="http://www.w3.org/2000/svg">
<path d="M35.2839 16.9607L27.0431 9.25392C26.503 8.76302 25.6789 8.76302 25.1407 9.25392C24.8883 9.48261 24.7444 9.80596 24.7444 10.145C24.7444 10.4841 24.8883 10.8074 25.1407 11.0361L31.0865 16.5878H6.46683C5.76893 16.5878 5.20508 17.1516 5.20508 17.8495C5.20508 18.5455 5.76893 19.1113 6.46683 19.1113H31.0709L25.1407 24.663C24.8942 24.8956 24.7582 25.2209 24.7641 25.56C24.77 25.8991 24.9179 26.2185 25.1703 26.4432C25.7045 26.9164 26.5089 26.9164 27.0431 26.4432L35.2839 18.7208V18.7228C35.5303 18.4901 35.6742 18.1707 35.6841 17.8336C35.6722 17.5005 35.5283 17.1874 35.2839 16.9607Z" fill="#008DD2"/>
<path d="M22.4652 11.4466C22.8004 11.4466 23.1198 11.3125 23.3583 11.0759C23.5949 10.8393 23.7269 10.518 23.7269 10.1848V3.78524C23.7269 1.69548 22.2129 0 20.3557 0H3.37714C1.5141 0 0 1.69548 0 3.78524V31.8748C0 33.9645 1.5141 35.66 3.37714 35.66H20.3653C22.2224 35.66 23.7365 33.9645 23.7365 31.8748V25.4752C23.7365 24.7792 23.1727 24.2134 22.4748 24.2134C21.7789 24.2134 21.213 24.7792 21.213 25.4752V31.8748C21.213 32.6161 20.7635 33.1365 20.3653 33.1365H3.37714C2.97299 33.1365 2.52349 32.6318 2.52349 31.8748V3.78524C2.52349 3.04394 2.97299 2.52349 3.37714 2.52349H20.3653C20.7635 2.52349 21.213 3.02819 21.213 3.78524V10.1848C21.213 10.8768 21.7713 11.4406 22.4652 11.4466Z" fill="#008DD2"/>
</svg>
