<svg width="153" height="40" viewBox="0 0 153 40" fill="none" xmlns="http://www.w3.org/2000/svg">
<g clip-path="url(#clip0_1_162)">
<path d="M46.0589 32.9214H45V28.0783H46.0589V32.9214ZM51.833 32.9214H50.7742C50.6124 32.9214 50.4709 32.8765 50.3497 32.7869C50.2503 32.7162 50.1473 32.5986 50.0408 32.4342L48.2153 29.6685C48.197 29.6274 48.1656 29.6069 48.1214 29.6069V32.9214H47.0626V28.0783H48.1214C48.2797 28.0783 48.4212 28.1231 48.5463 28.2127C48.6491 28.2873 48.752 28.403 48.8552 28.5599L50.6748 31.3256C50.6933 31.3705 50.7264 31.3928 50.7742 31.3928V28.0783H51.833V32.9214ZM57.1822 29.1533H55.3293V32.9214H54.2704V29.1533H52.4121V28.0783H57.1822V29.1533ZM62.0023 32.9214H57.7614V28.0783H62.0023V29.1533H58.8202V29.9596H61.7376V31.0346H58.8202V31.8464H62.0023V32.9214ZM66.8884 32.9214H65.8295V31.1465C65.8295 31.0719 65.7927 31.0346 65.7192 31.0346H63.7063V32.9214H62.6475V28.0783H65.8295C66.1161 28.0783 66.3644 28.1826 66.5741 28.3917C66.7836 28.6009 66.8884 28.8547 66.8884 29.1533V29.9596C66.8884 30.064 66.8709 30.1668 66.836 30.2675C66.801 30.3683 66.7522 30.4449 66.6899 30.497C66.7522 30.5492 66.801 30.6249 66.836 30.7238C66.8709 30.8228 66.8884 30.9263 66.8884 31.0346V32.9214ZM65.8295 29.8532V29.2597C65.8295 29.1886 65.7927 29.1533 65.7192 29.1533H63.7063V29.9596H65.7192C65.7523 29.9596 65.7788 29.9492 65.7991 29.9287C65.8193 29.9081 65.8295 29.8829 65.8295 29.8532ZM72.6456 32.9214H71.5868C71.425 32.9214 71.2837 32.8765 71.1624 32.7869C71.0632 32.7162 70.9603 32.5986 70.8537 32.4342L69.0281 29.6685C69.0099 29.6274 68.9786 29.6069 68.9344 29.6069V32.9214H67.8755V28.0783H68.9344C69.0925 28.0783 69.234 28.1231 69.3592 28.2127C69.462 28.2873 69.5648 28.403 69.6679 28.5599L71.4876 31.3256C71.5059 31.3705 71.539 31.3928 71.5868 31.3928V28.0783H72.6456V32.9214ZM78.8499 32.9214H77.6862L77.3167 32.1151H74.8516L74.4821 32.9214H73.3184L75.3535 28.487C75.5005 28.1621 75.7451 28 76.0871 28C76.2524 28 76.3968 28.0419 76.5198 28.1257C76.6431 28.2098 76.7413 28.3301 76.8148 28.487L78.8499 32.9214ZM76.9417 31.3089L76.1808 29.5956C76.1585 29.5509 76.1275 29.5283 76.0871 29.5283C76.0391 29.5283 76.0059 29.5509 75.9877 29.5956L75.2266 31.3089H76.9417ZM82.6606 29.1533H80.8077V32.9214H79.749V29.1533H77.8904V28.0783H82.6606V29.1533ZM84.2544 32.9214H83.1956V28.0783H84.2544V32.9214ZM90.001 31.8464C90.001 32.1377 89.898 32.3895 89.6921 32.6022C89.4864 32.8149 89.2365 32.9214 88.9423 32.9214H86.2896C85.9954 32.9214 85.7455 32.817 85.5396 32.608C85.3337 32.3987 85.2307 32.145 85.2307 31.8464V29.1533C85.2307 28.8547 85.3337 28.6009 85.5396 28.3917C85.7455 28.1826 85.9954 28.0783 86.2896 28.0783H88.9423C89.2365 28.0783 89.4864 28.1826 89.6921 28.3917C89.898 28.6009 90.001 28.8547 90.001 29.1533V31.8464ZM88.9423 31.7345V29.2597C88.9423 29.2297 88.932 29.2046 88.9118 29.1841C88.8916 29.1636 88.8669 29.1533 88.8375 29.1533H86.3944C86.365 29.1533 86.3403 29.1636 86.3201 29.1841C86.2999 29.2046 86.2896 29.2297 86.2896 29.2597V31.7345C86.2896 31.7679 86.2999 31.795 86.3201 31.8156C86.3403 31.8361 86.365 31.8464 86.3944 31.8464H88.8375C88.9074 31.8464 88.9423 31.809 88.9423 31.7345ZM95.7476 32.9214H94.6887C94.527 32.9214 94.3853 32.8765 94.264 32.7869C94.1649 32.7162 94.0619 32.5986 93.9553 32.4342L92.1297 29.6685C92.1115 29.6274 92.0802 29.6069 92.036 29.6069V32.9214H90.9771V28.0783H92.036C92.1941 28.0783 92.3356 28.1231 92.4608 28.2127C92.5636 28.2873 92.6666 28.403 92.7695 28.5599L94.5894 31.3256C94.6079 31.3705 94.6409 31.3928 94.6887 31.3928V28.0783H95.7476V32.9214ZM101.952 32.9214H100.788L100.418 32.1151H97.9534L97.584 32.9214H96.4203L98.4553 28.487C98.6023 28.1621 98.8468 28 99.1887 28C99.354 28 99.4984 28.0419 99.6214 28.1257C99.7448 28.2098 99.8429 28.3301 99.9166 28.487L101.952 32.9214ZM100.043 31.3089L99.2824 29.5956C99.2603 29.5509 99.2291 29.5283 99.1887 29.5283C99.1407 29.5283 99.1077 29.5509 99.0893 29.5956L98.3284 31.3089H100.043ZM106.33 32.9214H102.619V28.0783H103.678V31.8464H106.33V32.9214ZM113.5 31.8464C113.5 32.1412 113.396 32.3944 113.188 32.6052C112.98 32.8162 112.731 32.9214 112.441 32.9214H109.259V31.8464H112.331C112.404 31.8464 112.441 31.809 112.441 31.7345V31.1465C112.441 31.0719 112.404 31.0346 112.331 31.0346H110.317C110.023 31.0346 109.773 30.9299 109.567 30.7211C109.362 30.512 109.259 30.2582 109.259 29.9596V29.1533C109.259 28.8547 109.362 28.6009 109.567 28.3917C109.773 28.1826 110.023 28.0783 110.317 28.0783H112.97V29.1533H110.422C110.393 29.1533 110.368 29.1636 110.348 29.1841C110.328 29.2046 110.317 29.2297 110.317 29.2597V29.8532C110.317 29.8829 110.328 29.9081 110.348 29.9287C110.368 29.9492 110.393 29.9596 110.422 29.9596H112.441C112.731 29.9596 112.98 30.065 113.188 30.2758C113.396 30.4868 113.5 30.7397 113.5 31.0346V31.8464ZM118.529 32.9214H114.288V28.0783H118.529V29.1533H115.347V29.9596H118.264V31.0346H115.347V31.8464H118.529V32.9214ZM123.415 32.9214H122.357V31.1465C122.357 31.0719 122.32 31.0346 122.246 31.0346H120.233V32.9214H119.174V28.0783H122.357C122.643 28.0783 122.891 28.1826 123.101 28.3917C123.31 28.6009 123.415 28.8547 123.415 29.1533V29.9596C123.415 30.064 123.398 30.1668 123.363 30.2675C123.328 30.3683 123.279 30.4449 123.217 30.497C123.279 30.5492 123.328 30.6249 123.363 30.7238C123.398 30.8228 123.415 30.9263 123.415 31.0346V32.9214ZM122.357 29.8532V29.2597C122.357 29.1886 122.32 29.1533 122.246 29.1533H120.233V29.9596H122.246C122.279 29.9596 122.306 29.9492 122.326 29.9287C122.346 29.9081 122.357 29.8829 122.357 29.8532ZM128.434 28.0783L126.873 32.5175C126.755 32.8393 126.529 33 126.194 33C126.029 33 125.889 32.9577 125.773 32.8739C125.657 32.7899 125.572 32.6713 125.516 32.5175L123.961 28.0783H125.125L126.101 31.0793C126.112 31.1242 126.143 31.1465 126.194 31.1465C126.242 31.1465 126.275 31.1242 126.294 31.0793L127.27 28.0783H128.434ZM130.242 32.9214H129.183V28.0783H130.242V32.9214ZM135.459 32.9214H132.278C131.983 32.9214 131.733 32.817 131.527 32.608C131.322 32.3987 131.219 32.145 131.219 31.8464V29.1533C131.219 28.8547 131.322 28.6009 131.527 28.3917C131.733 28.1826 131.983 28.0783 132.278 28.0783H135.459V29.1533H132.382C132.353 29.1533 132.328 29.1636 132.308 29.1841C132.288 29.2046 132.278 29.2297 132.278 29.2597V31.7345C132.278 31.7679 132.288 31.795 132.308 31.8156C132.328 31.8361 132.353 31.8464 132.382 31.8464H135.459V32.9214ZM140.224 32.9214H135.983V28.0783H140.224V29.1533H137.042V29.9596H139.96V31.0346H137.042V31.8464H140.224V32.9214ZM145 31.8464C145 32.1412 144.896 32.3944 144.689 32.6052C144.481 32.8162 144.232 32.9214 143.941 32.9214H140.759V31.8464H143.831C143.905 31.8464 143.941 31.809 143.941 31.7345V31.1465C143.941 31.0719 143.905 31.0346 143.831 31.0346H141.818C141.524 31.0346 141.274 30.9299 141.068 30.7211C140.862 30.512 140.759 30.2582 140.759 29.9596V29.1533C140.759 28.8547 140.862 28.6009 141.068 28.3917C141.274 28.1826 141.524 28.0783 141.818 28.0783H144.471V29.1533H141.923C141.894 29.1533 141.869 29.1636 141.849 29.1841C141.828 29.2046 141.818 29.2297 141.818 29.2597V29.8532C141.818 29.8829 141.828 29.9081 141.849 29.9287C141.869 29.9492 141.894 29.9596 141.923 29.9596H143.941C144.232 29.9596 144.481 30.065 144.689 30.2758C144.896 30.4868 145 30.7397 145 31.0346V31.8464Z" fill="white"/>
<path d="M65.647 25H51.2955L53.1653 21.0682H59.4713L55.6835 13.0204C55.6013 12.8701 55.4847 12.7951 55.3337 12.7951C55.1416 12.7951 55.018 12.8701 54.963 13.0204L49.3432 25H45L52.5959 8.78156C53.1448 7.59374 54.0573 7 55.3337 7C56.5962 7 57.502 7.59374 58.0509 8.78156L65.647 25ZM83.5054 11.5709C82.391 10.931 82.0093 9.51371 82.6526 8.40537C83.2959 7.29687 84.7206 6.91712 85.8347 7.55705C86.9491 8.19699 87.3308 9.61425 86.6875 10.7228C86.0442 11.8311 84.6195 12.2108 83.5054 11.5709Z" fill="white"/>
<path fill-rule="evenodd" clip-rule="evenodd" d="M71.699 8V24.749H67V8H71.699ZM79.1322 8V24.749H74.4335V8H79.1322ZM86.5653 12.52V24.749H81.8667V12.52H86.5653ZM96.271 20.162V24.908C95.8858 24.9707 95.5348 25 95.2183 25C93.3395 25 91.7777 24.3932 90.5238 23.1836C89.27 21.9742 88.6451 20.4592 88.6451 18.6346C88.6451 16.86 89.2785 15.3575 90.5453 14.1229C91.8076 12.8884 93.348 12.2688 95.1626 12.2688C97.1825 12.2688 98.7745 12.8464 99.9427 14.0057C101.107 15.165 101.689 16.747 101.689 18.7516V24.749H96.9898V19.0823C96.9898 18.4377 96.8315 17.9229 96.5107 17.5379C96.194 17.157 95.7617 16.9645 95.2224 16.9645C94.7347 16.9645 94.3111 17.1404 93.9558 17.4919C93.6005 17.8434 93.421 18.2577 93.421 18.7391C93.421 19.2455 93.5834 19.664 93.9044 19.9905C94.2296 20.3168 94.6406 20.48 95.137 20.48C95.5435 20.48 95.9243 20.3755 96.271 20.162ZM115.55 24.749H110.851V17.8434C110.851 17.1404 110.56 16.7887 109.973 16.7887C109.396 16.7887 109.105 17.1404 109.105 17.8434V24.749H104.406V17.9272C104.406 16.3368 104.945 14.9933 106.023 13.9052C107.102 12.8129 108.42 12.2688 109.986 12.2688C111.771 12.2688 113.204 12.9009 114.283 14.1691C115.126 15.1566 115.55 16.5335 115.55 18.2954V24.749ZM125.961 19.12L130.613 18.9483C130.48 20.7102 129.808 22.1626 128.597 23.2966C127.386 24.431 125.91 25 124.172 25C122.332 25 120.783 24.3765 119.516 23.1251C118.25 21.8737 117.616 20.342 117.616 18.5299C117.616 16.8057 118.254 15.3325 119.533 14.1061C120.813 12.8799 122.345 12.2688 124.134 12.2688C125.696 12.2688 127.074 12.7502 128.272 13.7127C129.466 14.6796 130.211 15.9058 130.502 17.3997L125.752 17.5714C125.341 17.0484 124.823 16.7887 124.198 16.7887C123.663 16.7887 123.222 16.9604 122.88 17.3037C122.538 17.6469 122.366 18.0821 122.366 18.6051C122.366 19.1366 122.546 19.5803 122.91 19.9403C123.274 20.3002 123.727 20.48 124.271 20.48C125.062 20.48 125.627 20.0282 125.961 19.12ZM144.94 19.3753H137.832C137.734 19.0236 137.682 18.7056 137.682 18.4126C137.682 18.0068 137.755 17.6049 137.896 17.2157H140.28C140.113 16.295 139.591 15.8345 138.714 15.8345C138.127 15.8345 137.652 16.0773 137.284 16.567C136.916 17.0525 136.732 17.6802 136.732 18.4421C136.732 19.2371 136.908 19.8775 137.263 20.3713C137.618 20.861 138.085 21.1079 138.662 21.1079C139.129 21.1079 139.582 20.8777 140.014 20.4173L142.685 23.5603C141.44 24.5188 140.053 25 138.53 25C136.677 25 135.115 24.389 133.852 23.1711C132.59 21.9491 131.957 20.4425 131.957 18.6386C131.957 16.8474 132.594 15.3325 133.869 14.0978C135.149 12.8632 136.715 12.2437 138.572 12.2437C140.387 12.2437 141.915 12.8464 143.147 14.0559C144.384 15.2613 145 16.747 145 18.5173C145 18.6973 144.978 18.9818 144.94 19.3753Z" fill="white"/>
<path fill-rule="evenodd" clip-rule="evenodd" d="M10.0017 37.3175C0.437389 31.7954 -2.8396 19.5662 2.68248 10.0018C8.20455 0.43712 20.4338 -2.83951 29.9983 2.68254C39.5626 8.20442 42.8396 20.4336 37.3175 29.9982C31.7953 39.5629 19.5662 42.8395 10.0017 37.3175ZM34.0325 32.2976H14.525L17.0667 26.9252H25.6382L20.4898 15.9287C20.3778 15.7236 20.2191 15.621 20.014 15.621C19.7528 15.621 19.5849 15.7236 19.5105 15.9287L11.8717 32.2976H5.96752L16.2927 10.1368C17.0386 8.51389 18.279 7.70236 20.014 7.70236C21.7303 7.70236 22.9613 8.51389 23.7073 10.1368L34.0325 32.2976Z" fill="white"/>
<path d="M148.499 10V7.53798H148V7H149.736V7.53798H149.238V10H148.499ZM150.004 10V7H151.074L151.5 9.36756L151.946 7H153V10H152.331L152.376 7.46474L151.884 10H151.066L150.589 7.46474L150.643 10H150.004Z" fill="white"/>
</g>
<defs>
<clipPath id="clip0_1_162">
<rect width="153" height="40" fill="white"/>
</clipPath>
</defs>
</svg>
