<svg width="90" height="90" viewBox="0 0 90 90" fill="none" xmlns="http://www.w3.org/2000/svg">
<circle cx="45" cy="45" r="45" fill="#008DD2"/>
<path d="M65.0603 48.8135H51.2484C49.9037 48.8135 48.8109 49.9063 48.8109 51.2509V65.0629C48.8109 66.4076 49.9037 67.5004 51.2484 67.5004H65.0603C66.405 67.5004 67.4978 66.4076 67.4978 65.0629V51.2509C67.4978 49.9063 66.405 48.8135 65.0603 48.8135ZM56.1228 50.4384H60.1852V52.4696C60.1852 53.5888 59.2732 54.5008 58.154 54.5008C57.0348 54.5008 56.1228 53.5888 56.1228 52.4696L56.1228 50.4384ZM50.4351 51.2509C50.4351 50.802 50.7987 50.4384 51.2476 50.4384H54.4975V52.4696C54.4264 55.1468 50.5042 55.1468 50.4351 52.4696V51.2509ZM60.1849 65.8757H56.1225V62.4226C56.1225 62.0875 56.3967 61.8132 56.7319 61.8132H59.5756C59.9107 61.8132 60.185 62.0874 60.185 62.4226L60.1849 65.8757ZM65.8726 65.0632C65.8726 65.5121 65.509 65.8757 65.0601 65.8757H61.8101V62.4226C61.8101 61.1897 60.8088 60.1883 59.5758 60.1883H56.7321C55.4991 60.1883 54.4977 61.1897 54.4977 62.4226V65.8757H51.2478C50.7989 65.8757 50.4353 65.5121 50.4353 65.0632V55.5063C51.9141 56.5767 54.2479 56.1847 55.3102 54.7385C55.9805 55.5774 57.0002 56.1258 58.1539 56.1258C59.3077 56.1258 60.3273 55.5774 60.9977 54.7385C62.058 56.1847 64.3959 56.5767 65.8726 55.5063V65.0632ZM65.8726 52.4695C65.8015 55.1466 61.8792 55.1466 61.8101 52.4695V50.4383H65.0601C65.509 50.4383 65.8726 50.8019 65.8726 51.2508V52.4695Z" fill="white"/>
<path d="M24.4369 63.437H26.0619V65.062C26.0619 66.4066 27.1547 67.4994 28.4994 67.4994H45.7974C46.2463 67.4994 46.6099 67.1358 46.6099 66.6869C46.6099 66.238 46.2463 65.8744 45.7974 65.8744H28.4994C28.0505 65.8744 27.6869 65.5108 27.6869 65.062C27.6767 61.2595 28.1195 61.8567 24.4369 61.812C23.9901 61.812 23.6245 61.4464 23.6245 60.9995V24.438C23.6245 23.9891 23.9881 23.6255 24.4369 23.6255H51.2487C51.6976 23.6255 52.0612 23.9891 52.0612 24.438V26.0629H34.9993C34.788 26.0629 34.5727 26.1523 34.4244 26.3006L26.2996 34.4254C26.2244 34.5006 26.1655 34.59 26.1249 34.6895C26.0842 34.789 26.0619 34.8946 26.0619 35.0003V58.5621C26.0822 59.6204 27.6645 59.6386 27.6869 58.5621V35.8125H33.3745C34.7192 35.8125 35.812 34.7197 35.812 33.375V27.6874H55.3116C55.7605 27.6874 56.1241 28.051 56.1241 28.4999V45.5618C56.1322 46.6241 57.7369 46.6322 57.7491 45.5618V28.4999C57.7491 27.1552 56.6563 26.0624 55.3116 26.0624H53.6866V24.4375C53.6866 23.0928 52.5938 22 51.2492 22H24.4375C23.0928 22 22 23.0928 22 24.4375V60.999C22 62.3436 23.0928 63.4365 24.4375 63.4365L24.4369 63.437ZM34.1868 33.3753C34.1868 33.8242 33.8232 34.1878 33.3743 34.1878H28.8365L34.1867 28.8376L34.1868 33.3753Z" fill="white"/>
<path d="M53.6863 41.0928C53.6863 40.6439 53.3228 40.2803 52.8739 40.2803H30.9365C30.4876 40.2803 30.124 40.6439 30.124 41.0928C30.124 41.5417 30.4876 41.9052 30.9365 41.9052H52.8739C53.3228 41.9052 53.6863 41.5417 53.6863 41.0928Z" fill="white"/>
<path d="M45.561 45.145H30.9363C30.4874 45.145 30.1238 45.5086 30.1238 45.9575C30.1238 46.4064 30.4874 46.77 30.9363 46.77H45.561C46.6233 46.7537 46.6335 45.1633 45.561 45.145Z" fill="white"/>
<path d="M45.561 50.0298H30.9363C30.4874 50.0298 30.1238 50.3934 30.1238 50.8423C30.1238 51.2912 30.4874 51.6548 30.9363 51.6548H45.561C46.6233 51.6385 46.6335 50.0481 45.561 50.0298Z" fill="white"/>
<path d="M45.561 54.9043H30.9363C30.4874 54.9043 30.1238 55.2679 30.1238 55.7168C30.1238 56.1657 30.4874 56.5293 30.9363 56.5293H45.561C46.6233 56.513 46.6335 54.9226 45.561 54.9043Z" fill="white"/>
</svg>
