<svg width="90" height="90" viewBox="0 0 90 90" fill="none" xmlns="http://www.w3.org/2000/svg">
<circle cx="45" cy="45" r="45" fill="#008DD2"/>
<path d="M53.7561 56.4632C53.5391 56.4632 53.3343 56.5484 53.1822 56.7005C53.0301 56.8526 52.9429 57.0595 52.9449 57.2744V64.7884C52.9429 65.3075 52.5231 65.7273 52.0059 65.7273H24.5611C24.0419 65.7273 23.6221 65.3075 23.6221 64.7884V24.5611C23.6221 24.0419 24.0419 23.6221 24.5611 23.6221H45.9363V29.4508C45.9363 30.3817 46.6907 31.1361 47.6216 31.1361H52.9431V37.484L52.9451 37.486C52.9512 37.9281 53.3122 38.2851 53.7563 38.2851C54.1984 38.2851 54.5594 37.9281 54.5675 37.486V30.3007C54.5675 30.0959 54.4884 29.8972 54.3485 29.7471L47.3439 22.2576C47.3033 22.2251 47.2627 22.1967 47.2181 22.1683C47.0843 22.0629 46.922 22.0041 46.7517 22H24.5614C23.1478 22.002 22.002 23.1478 22 24.5614V64.7886C22.002 66.2022 23.1478 67.348 24.5614 67.35H52.0062C53.4197 67.348 54.5655 66.2022 54.5676 64.7886V57.2747C54.5676 57.0597 54.4824 56.8529 54.3303 56.7008C54.1761 56.5487 53.9711 56.4632 53.7561 56.4632ZM47.5583 29.4504V24.861L51.9083 29.5132H47.6211C47.5867 29.5132 47.5583 29.4848 47.5583 29.4504Z" fill="white"/>
<path d="M27.4997 29.7596H41.8781C42.3202 29.7515 42.6731 29.3905 42.6731 28.9484C42.6731 28.5063 42.3202 28.1453 41.8781 28.1372H27.4997C27.0576 28.1453 26.7027 28.5063 26.7027 28.9484C26.7027 29.3905 27.0576 29.7515 27.4997 29.7596Z" fill="white"/>
<path d="M27.4995 34.2533H41.8779C42.32 34.2451 42.6729 33.8842 42.6729 33.4421C42.6729 33 42.32 32.639 41.8779 32.6309H27.4995C27.0574 32.639 26.7046 33 26.7046 33.4421C26.7046 33.8842 27.0575 34.2431 27.4995 34.2533Z" fill="white"/>
<path d="M49.0675 37.1226H27.4997C27.0576 37.1327 26.7027 37.4917 26.7027 37.9338C26.7027 38.3759 27.0576 38.7369 27.4997 38.745H49.0675C49.5096 38.7368 49.8625 38.3759 49.8625 37.9338C49.8625 37.4917 49.5096 37.1327 49.0675 37.1226Z" fill="white"/>
<path d="M49.8786 42.4294C49.8786 42.2144 49.7934 42.0076 49.6413 41.8554C49.4892 41.7033 49.2823 41.6182 49.0674 41.6182H27.4995C27.0514 41.6202 26.6904 41.9832 26.6904 42.4294C26.6904 42.8776 27.0514 43.2385 27.4995 43.2406H49.0674C49.2823 43.2406 49.4892 43.1554 49.6413 43.0033C49.7934 42.8512 49.8786 42.6444 49.8786 42.4294Z" fill="white"/>
<path d="M46.2845 46.923C46.2845 46.7081 46.1994 46.5012 46.0473 46.3491C45.8931 46.197 45.6883 46.1118 45.4733 46.1118H27.4992C27.051 46.1118 26.688 46.4748 26.688 46.923C26.688 47.3712 27.051 47.7342 27.4992 47.7342H45.4733C45.6883 47.7342 45.8931 47.649 46.0473 47.4969C46.1994 47.3448 46.2845 47.138 46.2845 46.923Z" fill="white"/>
<path d="M42.6897 51.4167C42.6897 51.2017 42.6046 50.9949 42.4525 50.8427C42.3004 50.6906 42.0935 50.6055 41.8785 50.6055H27.5002C27.052 50.6055 26.691 50.9685 26.691 51.4167C26.691 51.8628 27.052 52.2258 27.5002 52.2279H41.8785C42.0935 52.2279 42.3004 52.1427 42.4525 51.9906C42.6046 51.8385 42.6897 51.6317 42.6897 51.4167Z" fill="white"/>
<path d="M27.4997 55.0928C27.0576 55.1029 26.7027 55.4619 26.7027 55.904C26.7027 56.3461 27.0576 56.7071 27.4997 56.7152H40.9332C41.3753 56.7071 41.7282 56.3461 41.7282 55.904C41.7282 55.4619 41.3753 55.1009 40.9332 55.0928H27.4997Z" fill="white"/>
<path d="M66.4451 38.6734L65.0154 37.5478L65.6116 36.7894C66.0598 36.187 66.218 35.4185 66.0476 34.6884C65.8772 33.9583 65.3946 33.3397 64.7274 32.997C63.6707 32.1675 62.1416 32.3501 61.3102 33.4046L60.5801 34.3315C59.6493 34.0962 58.6677 34.4288 58.0735 35.1812L53.4111 41.1049V41.1069C53.399 41.1211 53.3868 41.1353 53.3767 41.1515C53.2043 41.3787 45.4188 51.2551 45.4048 51.2857L45.4028 51.2837C45.3744 51.3486 45.3399 51.4094 45.3014 51.4662C45.2385 51.669 43.0503 57.0577 43.0219 57.1688C42.8171 57.8319 43.0949 58.5498 43.6953 58.9006C43.677 58.925 43.4478 59.215 43.2937 59.4117C43.1538 59.5902 43.1477 59.6023 43.1477 59.5902C42.7989 59.5821 27.4974 59.5942 27.4511 59.5922C27.2362 59.6044 27.0354 59.7017 26.8935 59.8619C26.7495 60.0242 26.6765 60.2351 26.6886 60.45C26.7312 60.8719 27.08 61.1984 27.5039 61.2126C27.8993 61.1984 43.5228 61.2248 43.596 61.2106C43.7015 61.2045 43.8009 61.1761 43.8941 61.1294C44.1213 61.0666 44.827 60.0607 44.973 59.9045C45.4699 60.4257 46.2689 60.515 46.8672 60.1134C46.9807 60.0242 51.8175 56.6029 51.8317 56.5847C52.1298 56.3981 64.9288 39.9022 65.1474 39.7158C65.2021 39.7665 65.4495 39.947 65.482 39.9815V39.9835C65.8835 40.4175 65.8997 41.0807 65.5246 41.537C65.3704 41.7317 59.4404 49.2638 59.4124 49.3063V49.3084C59.242 49.5639 59.2319 49.8945 59.384 50.1642C59.5361 50.4319 59.8261 50.5901 60.1323 50.5759C60.3635 50.5536 60.5744 50.442 60.7225 50.2656C60.9192 49.9837 66.7661 42.6099 66.8632 42.4578C67.7596 41.2876 67.5747 39.6184 66.4451 38.6734ZM62.5838 34.4085C62.8616 34.0557 63.3706 33.9968 63.7235 34.2727L64.2001 34.6458C64.553 34.9236 64.6138 35.4347 64.336 35.7876L63.7398 36.544L61.9876 35.165L62.5838 34.4085ZM51.215 54.7942C50.3835 54.1412 48.0575 52.3099 47.1955 51.6305L54.1534 42.7885L58.1729 45.9522L51.215 54.7942ZM59.177 44.6766L55.1575 41.5129C55.263 41.3791 55.8612 40.6186 55.9524 40.503L59.972 43.6667L59.177 44.6766ZM46.0618 58.6963L44.6138 57.5565L46.4045 53.0747L49.9941 55.8997L46.0618 58.6963ZM60.9739 42.3933L56.9543 39.2296L59.3494 36.1876V36.1856C59.6273 35.8347 60.1363 35.7739 60.4892 36.0517L62.1562 37.3638L63.8698 38.7125L60.9739 42.3933Z" fill="white"/>
</svg>
