<svg width="90" height="90" viewBox="0 0 90 90" fill="none" xmlns="http://www.w3.org/2000/svg">
<circle cx="45" cy="45" r="45" fill="#008DD2"/>
<path d="M66.9999 40.7219C67.0093 38.4954 66.0949 36.3643 64.4773 34.835C63.836 34.2256 63.101 33.7228 62.2988 33.347C64.2828 31.8683 65.0963 29.2829 64.3165 26.9352C63.5367 24.5872 61.3395 23.0019 58.8634 23.0019C56.3894 23.0019 54.1922 24.5872 53.4123 26.9352C52.6325 29.2831 53.4441 31.8687 55.4281 33.347C54.0088 34.0349 52.812 35.1136 51.9799 36.4539C51.1459 37.7943 50.7102 39.344 50.7233 40.9236V43.5931C50.7251 43.9203 50.7812 44.2437 50.8916 44.5503H45.2892C45.3995 44.2437 45.4556 43.9203 45.4575 43.5931V40.7217C45.4556 39.172 45.0124 37.6559 44.1765 36.3511C43.3425 35.0444 42.1532 34.005 40.7469 33.3526C42.7347 31.8739 43.5519 29.2885 42.7721 26.9388C41.9942 24.5871 39.797 23 37.3191 23C34.8412 23 32.6442 24.5871 31.8661 26.9388C31.0863 29.2887 31.9035 31.8738 33.8913 33.3526C32.485 34.005 31.2957 35.0444 30.4617 36.3511C29.6258 37.6559 29.1826 39.172 29.1807 40.7217V43.5931C29.1826 43.9203 29.2387 44.2437 29.349 44.5503H24.8723C23.2865 44.5503 22 45.8364 22 47.4217V48.3788C22 49.964 23.2865 51.2502 24.8723 51.2502H26.7872V65.1286C26.7872 66.7139 28.0737 68 29.6594 68H60.5366C62.1223 68 63.4089 66.7139 63.4089 65.1286V51.2502H64.127C65.7127 51.2502 66.9992 49.964 66.9992 48.3788V47.4217C66.9974 46.715 66.7356 46.0327 66.2625 45.5074C66.7356 44.9821 66.9974 44.2998 66.9992 43.5931L66.9999 40.7219ZM58.8618 24.9292C60.4101 24.9292 61.807 25.862 62.3998 27.2921C62.9926 28.7241 62.6653 30.3692 61.5695 31.4646C60.4737 32.5601 58.8281 32.8873 57.3957 32.2947C55.9651 31.7021 55.032 30.3056 55.032 28.7578C55.032 26.6435 56.7468 24.9292 58.8618 24.9292ZM33.4898 28.7577C33.4898 27.2099 34.423 25.8134 35.8535 25.2208C37.2859 24.6282 38.9315 24.9554 40.0273 26.0509C41.1232 27.1463 41.4504 28.7914 40.8576 30.2234C40.2648 31.6535 38.868 32.5863 37.3196 32.5863C35.2047 32.5863 33.4898 30.872 33.4898 28.7577ZM31.0963 43.5933V40.7219C31.0963 37.2859 33.8825 34.5005 37.3196 34.5005C40.7566 34.5005 43.5429 37.2859 43.5429 40.7219V43.5933C43.5429 43.8475 43.4419 44.0906 43.2624 44.27C43.0829 44.4495 42.8398 44.5504 42.5854 44.5504H32.0537C31.5245 44.5504 31.0963 44.1223 31.0963 43.5933ZM23.9155 48.3789V47.4218C23.9155 46.8927 24.3438 46.4647 24.873 46.4647H54.314V49.3361H24.873C24.3438 49.3361 23.9155 48.908 23.9155 48.3789ZM28.7027 65.1287V51.2503H54.314V65.1287C54.3158 65.4559 54.3719 65.7793 54.4823 66.0859H29.6599C29.1307 66.0859 28.7027 65.6578 28.7027 65.1287ZM61.4947 65.1287C61.4947 65.383 61.3937 65.626 61.2142 65.8055C61.0347 65.9849 60.7916 66.0859 60.5373 66.0859H57.1862C56.657 66.0859 56.2288 65.6578 56.2288 65.1288V45.5076C56.2288 45.2533 56.1278 45.0103 55.9483 44.8308C55.7688 44.6514 55.5257 44.5504 55.2714 44.5504H53.5959C53.0666 44.5504 52.6384 44.1223 52.6384 43.5933V40.9238C52.5749 37.5439 55.1853 34.712 58.5606 34.5005C60.2623 34.4182 61.9228 35.037 63.157 36.2128C64.3894 37.3887 65.0868 39.0188 65.085 40.7218V43.5932C65.085 43.8475 64.984 44.0905 64.8045 44.27C64.625 44.4494 64.3819 44.5504 64.1275 44.5504H62.452C61.9228 44.5504 61.4946 44.9785 61.4946 45.5075L61.4947 65.1287ZM65.0851 48.3789C65.0851 48.6332 64.9841 48.8762 64.8046 49.0557C64.625 49.2351 64.382 49.3361 64.1276 49.3361H63.4095V46.4647H64.1276C64.3819 46.4647 64.625 46.5656 64.8046 46.7451C64.9841 46.9246 65.0851 47.1676 65.0851 47.4218V48.3789Z" fill="white"/>
</svg>
