<svg width="90" height="90" viewBox="0 0 90 90" fill="none" xmlns="http://www.w3.org/2000/svg">
<circle cx="45" cy="45" r="45" fill="#008DD2"/>
<path fill-rule="evenodd" clip-rule="evenodd" d="M29.0091 51.2968C29.0092 51.148 29.0386 51.0008 29.0956 50.8634C29.1527 50.7261 29.2362 50.6013 29.3415 50.4963C29.4468 50.3912 29.5718 50.308 29.7092 50.2513C29.8467 50.1946 29.9941 50.1655 30.1428 50.1658H51.7211C51.8696 50.1658 52.0167 50.195 52.1539 50.2519C52.2911 50.3087 52.4158 50.392 52.5208 50.497C52.6258 50.6021 52.7091 50.7267 52.766 50.864C52.8228 51.0012 52.8521 51.1483 52.8521 51.2968C52.8521 51.4453 52.8228 51.5924 52.766 51.7296C52.7091 51.8668 52.6258 51.9915 52.5208 52.0965C52.4158 52.2015 52.2911 52.2848 52.1539 52.3417C52.0167 52.3985 51.8696 52.4278 51.7211 52.4278H30.1428C29.9941 52.428 29.8467 52.399 29.7092 52.3423C29.5718 52.2856 29.4468 52.2023 29.3415 52.0973C29.2362 51.9923 29.1527 51.8675 29.0956 51.7301C29.0386 51.5928 29.0092 51.4455 29.0091 51.2968ZM29.0091 38.5047C29.0096 38.2044 29.1292 37.9166 29.3418 37.7045C29.5544 37.4924 29.8425 37.3734 30.1428 37.3737H42.0393C42.3351 37.3801 42.6166 37.5022 42.8235 37.7136C43.0304 37.9251 43.1462 38.2091 43.1462 38.505C43.1462 38.8008 43.0304 39.0849 42.8235 39.2963C42.6166 39.5078 42.3351 39.6298 42.0393 39.6362H30.1428C29.994 39.6364 29.8467 39.6073 29.7092 39.5506C29.5717 39.4938 29.4467 39.4105 29.3415 39.3054C29.2362 39.2003 29.1526 39.0755 29.0956 38.9381C29.0386 38.8007 29.0092 38.6534 29.0091 38.5047ZM23.263 32.5409V57.2595H28.3865C28.9662 57.2601 29.522 57.4904 29.9321 57.9C30.3422 58.3097 30.5732 58.8652 30.5745 59.4448V63.4668L36.9738 57.8494C37.3808 57.473 37.9139 57.2626 38.4683 57.2595H58.6008V39.0935L49.5599 48.1339C49.3992 48.2951 49.1936 48.4041 48.97 48.4465L43.0357 49.5502C42.9666 49.5623 42.8967 49.5685 42.8266 49.5689C42.6602 49.5691 42.4959 49.5325 42.3453 49.4618C42.1947 49.3911 42.0616 49.2881 41.9554 49.16C41.8492 49.032 41.7726 48.8821 41.731 48.721C41.6895 48.56 41.6839 48.3917 41.7149 48.2283L42.1241 46.0296H30.1428C29.8428 46.0296 29.5552 45.9104 29.3431 45.6983C29.131 45.4862 29.0118 45.1985 29.0118 44.8986C29.0118 44.5986 29.131 44.311 29.3431 44.0989C29.5552 43.8868 29.8428 43.7676 30.1428 43.7676H42.5423L42.818 42.295C42.8588 42.0701 42.9673 41.863 43.129 41.7014L52.2949 32.5409H23.263ZM63.8975 24.262C63.9776 24.2619 64.0546 24.2931 64.112 24.3489L66.9183 27.1552C66.9721 27.2127 67.002 27.2885 67.002 27.3673C67.002 27.446 66.9721 27.5218 66.9183 27.5794L65.8726 28.6229L62.6437 25.3919L63.6868 24.3489C63.715 24.321 63.7485 24.2989 63.7853 24.284C63.8221 24.2691 63.8616 24.2616 63.9013 24.262H63.8975ZM48.7593 45.7352L45.5304 42.5036L61.0424 26.9916L64.2713 30.2226L48.7593 45.7352ZM44.6499 44.8235L46.4421 46.6157L44.2434 47.0254L44.6525 44.8235H44.6499ZM23.1874 59.5242H28.3109V65.969C28.3105 66.1864 28.3727 66.3993 28.4902 66.5822C28.6076 66.7651 28.7753 66.9102 28.9732 67.0002C29.1203 67.0656 29.2794 67.0996 29.4403 67.1C29.7154 67.1008 29.9814 67.0008 30.1878 66.819L38.4683 59.5515C38.4817 59.5392 38.4951 59.5295 38.4994 59.5242H58.6813C59.2605 59.5235 59.8157 59.2929 60.2251 58.8832C60.6345 58.4735 60.8647 57.9181 60.8649 57.3389V36.831L68.5132 29.179C68.9935 28.6985 69.2633 28.0469 69.2633 27.3675C69.2633 26.6881 68.9935 26.0365 68.5132 25.556L65.708 22.7492C65.2268 22.2694 64.5751 22 63.8956 22C63.2162 22 62.5644 22.2694 62.0833 22.7492L54.5542 30.2784H23.1874C22.608 30.2788 22.0523 30.509 21.6423 30.9184C21.2323 31.3278 21.0013 31.8831 21 32.4626V57.3389C21.0013 57.9184 21.2322 58.4739 21.6422 58.8835C22.0522 59.2931 22.6079 59.5235 23.1874 59.5242Z" fill="white"/>
</svg>
