<svg width="23" height="23" viewBox="0 0 23 23" fill="none" xmlns="http://www.w3.org/2000/svg">
<path d="M10 3.59375H3C2.46957 3.59375 1.96086 3.80446 1.58579 4.17954C1.21071 4.55461 1 5.06332 1 5.59375V19.5938C1 20.1242 1.21071 20.6329 1.58579 21.008C1.96086 21.383 2.46957 21.5938 3 21.5938H17C17.5304 21.5938 18.0391 21.383 18.4142 21.008C18.7893 20.6329 19 20.1242 19 19.5938V12.5938" stroke="#008DD2" stroke-width="2" stroke-linecap="round" stroke-linejoin="round"/>
<path d="M17.5 2.09398C17.8978 1.69615 18.4374 1.47266 19 1.47266C19.5626 1.47266 20.1022 1.69615 20.5 2.09398C20.8978 2.4918 21.1213 3.03137 21.1213 3.59398C21.1213 4.15659 20.8978 4.69615 20.5 5.09398L11 14.594L7 15.594L8 11.594L17.5 2.09398Z" stroke="#008DD2" stroke-width="2" stroke-linecap="round" stroke-linejoin="round"/>
</svg>
