<svg width="58" height="58" viewBox="0 0 58 58" fill="none" xmlns="http://www.w3.org/2000/svg">
<rect x="0.5" y="0.5" width="57" height="57" rx="8.5" fill="white" stroke="#D2D2D2"/>
<path d="M41.998 19.1918C41.792 18.8353 41.4108 18.6145 40.9988 18.6145L35.2296 18.6157V17.4624C35.2296 16.5447 34.8645 15.664 34.2157 15.0152C33.5669 14.3651 32.6874 14 31.7684 14H24.846C23.9283 14 23.0475 14.3651 22.3987 15.0139C21.7499 15.6628 21.3848 16.5435 21.3848 17.4612V18.6145L16.1536 18.6157C15.7416 18.6157 15.3605 18.8353 15.1545 19.193C14.9485 19.5495 14.9485 19.9898 15.1545 20.3463C15.3605 20.7028 15.7416 20.9236 16.1536 20.9236H16.7692V38.231C16.7704 39.7605 17.3797 41.2271 18.4615 42.3076C19.5433 43.3894 21.0087 43.9975 22.5382 44H34.0763C35.6059 43.9988 37.0725 43.3894 38.153 42.3076C39.2348 41.2258 39.8429 39.7605 39.8454 38.231V20.9236H40.9987C41.4107 20.9236 41.7918 20.704 41.9978 20.3463C42.2038 19.9886 42.204 19.5495 41.998 19.1918ZM23.6928 17.4612C23.6928 17.1552 23.8149 16.8617 24.0307 16.6458C24.2466 16.43 24.5402 16.3078 24.8461 16.3078H31.7685C32.0744 16.3078 32.368 16.43 32.5839 16.6458C32.7997 16.8617 32.9218 17.1553 32.9218 17.4612V18.6145L23.6926 18.6157L23.6928 17.4612ZM37.5377 38.2298C37.5377 39.1475 37.1726 40.0282 36.5237 40.677C35.8749 41.3258 34.9942 41.6909 34.0765 41.6909H22.5383C21.6206 41.6909 20.7399 41.3258 20.0911 40.677C19.4422 40.0282 19.0771 39.1475 19.0771 38.2298V20.9224H37.5377L37.5377 38.2298Z" fill="#008DD2"/>
<path d="M24.2701 36.9217C24.6266 37.1276 25.067 37.1276 25.4234 36.9217C25.7799 36.7157 26.0007 36.3345 26.0007 35.9225V26.6924C26.0007 26.3865 25.8786 26.0929 25.6627 25.877C25.4469 25.6612 25.1533 25.5391 24.8474 25.5391C24.5415 25.5391 24.2479 25.6612 24.0321 25.877C23.8162 26.0929 23.6941 26.3865 23.6941 26.6924V35.9225C23.6941 36.3357 23.9137 36.7156 24.2701 36.9217Z" fill="#008DD2"/>
<path d="M31.1927 36.9217C31.5492 37.1276 31.9896 37.1276 32.3461 36.9217C32.7025 36.7157 32.9233 36.3345 32.9233 35.9225V26.6924C32.9233 26.3865 32.8012 26.0929 32.5853 25.877C32.3695 25.6612 32.0759 25.5391 31.77 25.5391C31.4641 25.5391 31.1705 25.6612 30.9547 25.877C30.7388 26.0929 30.6167 26.3865 30.6167 26.6924V35.9225C30.6155 36.3357 30.835 36.7156 31.1927 36.9217Z" fill="#008DD2"/>
</svg>
