<svg width="21" height="21" viewBox="0 0 21 21" fill="none" xmlns="http://www.w3.org/2000/svg">
<path d="M3.57568 17.019H17.5464V19.019H3.57568V17.019ZM6.17025 14.319C6.71311 14.8455 7.35859 15.2541 8.06628 15.519C8.85754 15.8466 9.70494 16.0164 10.5611 16.019C11.4172 16.0164 12.2646 15.8466 13.0558 15.519C13.7406 15.2362 14.3599 14.815 14.875 14.2816C15.3901 13.7483 15.79 13.1142 16.0496 12.419C16.3596 11.6559 16.5287 10.8427 16.5485 10.019V2.01904H14.3531V10.019C14.3524 10.5988 14.2511 11.1741 14.0537 11.719C13.9104 12.195 13.6728 12.6371 13.3552 13.019C13.0198 13.3709 12.6109 13.6441 12.1577 13.819C11.6516 14.0277 11.1082 14.1298 10.5611 14.119C10.0139 14.1298 9.47047 14.0277 8.9644 13.819C8.50158 13.6151 8.09184 13.3072 7.76691 12.919C7.44693 12.5387 7.20908 12.0961 7.06837 11.619C6.88537 11.1048 6.78434 10.5648 6.769 10.019V2.01904H4.57359V10.019C4.56158 10.8366 4.6968 11.6496 4.97276 12.419C5.23718 13.1282 5.64485 13.775 6.17025 14.319Z" fill="#008DD2"/>
</svg>
