<svg width="21" height="21" viewBox="0 0 21 21" fill="none" xmlns="http://www.w3.org/2000/svg">
<path d="M15.224 8.96123C15.6738 8.41226 15.9587 7.74655 16.0457 7.0416C16.1327 6.33665 16.018 5.62144 15.7152 4.97923C15.4123 4.33702 14.9336 3.79421 14.3349 3.414C13.7361 3.03378 13.042 2.83179 12.3331 2.83154H7.03173C6.78361 2.83154 6.54565 2.93031 6.3702 3.10613C6.19476 3.28195 6.09619 3.5204 6.09619 3.76904V15.644C6.09619 15.8927 6.19476 16.1311 6.3702 16.307C6.54565 16.4828 6.78361 16.5815 7.03173 16.5815H13.2687C14.1678 16.5812 15.0414 16.2812 15.7518 15.729C16.4623 15.1767 16.9693 14.4034 17.1933 13.5307C17.4172 12.658 17.3452 11.7356 16.9887 10.9084C16.6322 10.0812 16.0114 9.39619 15.224 8.96123ZM7.96727 4.70654H12.3331C12.8294 4.70654 13.3053 4.90409 13.6562 5.25572C14.0071 5.60735 14.2042 6.08426 14.2042 6.58154C14.2042 7.07882 14.0071 7.55574 13.6562 7.90737C13.3053 8.259 12.8294 8.45654 12.3331 8.45654H7.96727V4.70654ZM13.2687 14.7065H7.96727V10.3315H13.2687C13.8476 10.3315 14.4029 10.562 14.8122 10.9722C15.2216 11.3825 15.4516 11.9389 15.4516 12.519C15.4516 13.0992 15.2216 13.6556 14.8122 14.0658C14.4029 14.4761 13.8476 14.7065 13.2687 14.7065Z" fill="#008DD2"/>
</svg>
