<svg width="21" height="20" viewBox="0 0 21 20" fill="none" xmlns="http://www.w3.org/2000/svg">
<path d="M15.2243 8.94219C15.6741 8.39321 15.9591 7.72751 16.0461 7.02256C16.133 6.3176 16.0184 5.6024 15.7155 4.96019C15.4127 4.31797 14.934 3.77517 14.3353 3.39496C13.7365 3.01474 13.0423 2.81275 12.3335 2.8125H7.0321C6.78398 2.8125 6.54602 2.91127 6.37057 3.08709C6.19512 3.2629 6.09656 3.50136 6.09656 3.75V15.625C6.09656 15.8736 6.19512 16.1121 6.37057 16.2879C6.54602 16.4637 6.78398 16.5625 7.0321 16.5625H13.269C14.1682 16.5621 15.0417 16.2622 15.7522 15.7099C16.4626 15.1576 16.9697 14.3843 17.1936 13.5117C17.4175 12.639 17.3456 11.7165 16.9891 10.8893C16.6326 10.0621 16.0118 9.37715 15.2243 8.94219ZM7.96764 4.6875H12.3335C12.8297 4.6875 13.3057 4.88504 13.6566 5.23667C14.0074 5.58831 14.2046 6.06522 14.2046 6.5625C14.2046 7.05978 14.0074 7.53669 13.6566 7.88833C13.3057 8.23996 12.8297 8.4375 12.3335 8.4375H7.96764V4.6875ZM13.269 14.6875H7.96764V10.3125H13.269C13.848 10.3125 14.4032 10.543 14.8126 10.9532C15.222 11.3634 15.452 11.9198 15.452 12.5C15.452 13.0802 15.222 13.6366 14.8126 14.0468C14.4032 14.457 13.848 14.6875 13.269 14.6875Z" fill="#008DD2"/>
</svg>
