<svg width="21" height="20" viewBox="0 0 21 20" fill="none" xmlns="http://www.w3.org/2000/svg">
<path d="M15.224 8.94219C15.6738 8.39321 15.9587 7.72751 16.0457 7.02256C16.1327 6.3176 16.018 5.6024 15.7152 4.96019C15.4123 4.31797 14.9336 3.77517 14.3349 3.39496C13.7361 3.01474 13.042 2.81275 12.3331 2.8125H7.03173C6.78361 2.8125 6.54565 2.91127 6.3702 3.08709C6.19476 3.2629 6.09619 3.50136 6.09619 3.75V15.625C6.09619 15.8736 6.19476 16.1121 6.3702 16.2879C6.54565 16.4637 6.78361 16.5625 7.03173 16.5625H13.2687C14.1678 16.5621 15.0414 16.2622 15.7518 15.7099C16.4623 15.1576 16.9693 14.3843 17.1933 13.5117C17.4172 12.639 17.3452 11.7165 16.9887 10.8893C16.6322 10.0621 16.0114 9.37715 15.224 8.94219ZM7.96727 4.6875H12.3331C12.8294 4.6875 13.3053 4.88504 13.6562 5.23667C14.0071 5.58831 14.2042 6.06522 14.2042 6.5625C14.2042 7.05978 14.0071 7.53669 13.6562 7.88833C13.3053 8.23996 12.8294 8.4375 12.3331 8.4375H7.96727V4.6875ZM13.2687 14.6875H7.96727V10.3125H13.2687C13.8476 10.3125 14.4029 10.543 14.8122 10.9532C15.2216 11.3634 15.4516 11.9198 15.4516 12.5C15.4516 13.0802 15.2216 13.6366 14.8122 14.0468C14.4029 14.457 13.8476 14.6875 13.2687 14.6875Z" fill="#008DD2"/>
</svg>
