<svg width="24" height="24" viewBox="0 0 24 24" fill="none" xmlns="http://www.w3.org/2000/svg">
<path d="M16.2346 8H12.5242C12.2428 8.00025 11.9731 8.11221 11.7743 8.31126L7.48025 12.6053C7.28154 12.8043 7.16992 13.074 7.16992 13.3552C7.16992 13.6364 7.28154 13.9061 7.48025 14.105L10.4833 17.108C10.6822 17.3068 10.9519 17.4184 11.2331 17.4184C11.5143 17.4184 11.784 17.3068 11.983 17.108L16.27 12.814C16.469 12.6152 16.581 12.3455 16.5812 12.0641V8.35371C16.5812 8.26111 16.5449 8.1722 16.4801 8.10607C16.4153 8.03993 16.3272 8.00185 16.2346 8ZM15.8809 12.0641C15.8805 12.1569 15.8436 12.2458 15.7783 12.3117L11.4807 16.6093C11.4144 16.6752 11.3248 16.7122 11.2314 16.7122C11.1379 16.7122 11.0483 16.6752 10.982 16.6093L7.97898 13.624C7.91311 13.5577 7.87613 13.4681 7.87613 13.3746C7.87613 13.2812 7.91311 13.1915 7.97898 13.1253L12.2766 8.81C12.3424 8.74465 12.4314 8.70781 12.5242 8.70742H15.8809V12.0641Z" fill="white" stroke="white" stroke-width="0.241702"/>
<path d="M21.7217 10.125L19.5342 9.87813C19.3663 9.28571 19.1293 8.71512 18.828 8.17813L20.2123 6.44688C20.26 6.38663 20.2838 6.31096 20.2791 6.2343C20.2745 6.15763 20.2419 6.08535 20.1873 6.03125L17.9655 3.825C17.9114 3.77049 17.8391 3.73781 17.7624 3.7332C17.6858 3.72859 17.6101 3.75237 17.5499 3.8L15.8186 5.18438C15.2816 4.88308 14.7111 4.64603 14.1186 4.47813L13.8718 2.29063C13.8663 2.21214 13.8314 2.13861 13.774 2.08473C13.7167 2.03086 13.6411 2.0006 13.5624 2.00001H10.4374C10.3602 1.99954 10.2855 2.0277 10.2278 2.07906C10.1701 2.13043 10.1334 2.20134 10.1249 2.27813L9.87806 4.46563C9.28565 4.63353 8.71507 4.87058 8.17808 5.17188L6.44997 3.8C6.38972 3.75237 6.31405 3.72859 6.23738 3.7332C6.16072 3.73781 6.08844 3.77049 6.03434 3.825L3.82499 6.03438C3.77048 6.08848 3.7378 6.16076 3.73319 6.23742C3.72858 6.31408 3.75236 6.38976 3.79999 6.45L5.18435 8.18125C4.88305 8.71825 4.64601 9.28884 4.47811 9.88125L2.29063 10.1281C2.21213 10.1336 2.13861 10.1685 2.08473 10.2259C2.03086 10.2833 2.0006 10.3588 2.00001 10.4375V13.5625C1.99954 13.6398 2.0277 13.7144 2.07906 13.7722C2.13042 13.8299 2.20134 13.8665 2.27813 13.875L4.46561 14.1219C4.63351 14.7143 4.87055 15.2849 5.17185 15.8219L3.79999 17.55C3.75236 17.6102 3.72858 17.6859 3.73319 17.7626C3.7378 17.8392 3.77048 17.9115 3.82499 17.9656L6.03434 20.175C6.08844 20.2295 6.16072 20.2622 6.23738 20.2668C6.31405 20.2714 6.38972 20.2476 6.44997 20.2L8.17808 18.8156C8.7164 19.1164 9.28797 19.3534 9.88119 19.5219L10.1281 21.7094C10.1336 21.7879 10.1685 21.8614 10.2258 21.9153C10.2832 21.9691 10.3587 21.9994 10.4374 22H13.5624C13.6397 22.0005 13.7143 21.9723 13.7721 21.9209C13.8298 21.8696 13.8664 21.7987 13.8749 21.7219L14.1218 19.5344C14.715 19.3659 15.2866 19.1289 15.8249 18.8281L17.553 20.2125C17.6132 20.2601 17.6889 20.2839 17.7656 20.2793C17.8422 20.2747 17.9145 20.242 17.9686 20.1875L20.178 17.9781C20.2325 17.924 20.2652 17.8517 20.2698 17.7751C20.2744 17.6984 20.2506 17.6227 20.203 17.5625L18.8186 15.8312C19.1199 15.2943 19.3569 14.7237 19.5248 14.1312L21.7123 13.8844C21.7924 13.878 21.867 13.841 21.9206 13.781C21.9741 13.7211 22.0025 13.6428 21.9998 13.5625V10.4375C22.0003 10.3602 21.9721 10.2856 21.9208 10.2278C21.8694 10.1701 21.7985 10.1335 21.7217 10.125ZM21.3748 13.2812L19.2405 13.5187C19.1767 13.526 19.1167 13.5526 19.0686 13.5951C19.0206 13.6376 18.9867 13.6939 18.9717 13.7562C18.8 14.4358 18.5294 15.0865 18.1686 15.6875C18.1359 15.7423 18.1207 15.8059 18.1252 15.8695C18.1297 15.9332 18.1535 15.994 18.1936 16.0437L19.5373 17.7219L17.7217 19.5375L16.0436 18.1937C15.9939 18.1537 15.9331 18.1298 15.8694 18.1253C15.8057 18.1209 15.7422 18.136 15.6874 18.1687C15.0864 18.5296 14.4357 18.8001 13.7562 18.9719C13.6938 18.9869 13.6375 19.0207 13.595 19.0688C13.5525 19.1169 13.5259 19.1769 13.5187 19.2406L13.2843 21.375H10.7156L10.4812 19.2406C10.474 19.1769 10.4473 19.1169 10.4048 19.0688C10.3623 19.0207 10.3061 18.9869 10.2437 18.9719C9.56409 18.8001 8.91341 18.5296 8.31245 18.1687C8.25763 18.136 8.19409 18.1209 8.1304 18.1253C8.06671 18.1298 8.00592 18.1537 7.9562 18.1937L6.27809 19.5375L4.46248 17.7219L5.80622 16.0437C5.84628 15.994 5.87015 15.9332 5.87462 15.8695C5.87909 15.8059 5.86395 15.7423 5.83122 15.6875C5.47042 15.0865 5.19983 14.4358 5.0281 13.7562C5.01311 13.6939 4.97927 13.6376 4.93119 13.5951C4.88311 13.5526 4.82312 13.526 4.75936 13.5187L2.625 13.2812V10.7188L4.75936 10.4813C4.82312 10.474 4.88311 10.4474 4.93119 10.4049C4.97927 10.3624 5.01311 10.3061 5.0281 10.2438C5.19983 9.56416 5.47042 8.91347 5.83122 8.3125C5.86395 8.25768 5.87909 8.19415 5.87462 8.13045C5.87015 8.06676 5.84628 8.00597 5.80622 7.95625L4.46248 6.27813L6.27809 4.4625L7.9562 5.80625C8.00592 5.84632 8.06671 5.87019 8.1304 5.87466C8.19409 5.87913 8.25763 5.86398 8.31245 5.83125C8.91341 5.47045 9.56409 5.19985 10.2437 5.02813C10.3061 5.01313 10.3623 4.9793 10.4048 4.93122C10.4473 4.88314 10.474 4.82314 10.4812 4.75938L10.7156 2.62501H13.2843L13.5187 4.75938C13.5259 4.82314 13.5525 4.88314 13.595 4.93122C13.6375 4.9793 13.6938 5.01313 13.7562 5.02813C14.4357 5.19985 15.0864 5.47045 15.6874 5.83125C15.7422 5.86398 15.8057 5.87913 15.8694 5.87466C15.9331 5.87019 15.9939 5.84632 16.0436 5.80625L17.7217 4.4625L19.5373 6.27813L18.1936 7.95625C18.1535 8.00597 18.1297 8.06676 18.1252 8.13045C18.1207 8.19415 18.1359 8.25768 18.1686 8.3125C18.5294 8.91347 18.8 9.56416 18.9717 10.2438C18.9867 10.3061 19.0206 10.3624 19.0686 10.4049C19.1167 10.4474 19.1767 10.474 19.2405 10.4813L21.3748 10.7188V13.2812Z" fill="white" stroke="white"/>
<path d="M11.488 13.6851C11.4076 13.5986 11.3048 13.5362 11.1909 13.5047C11.0869 13.4749 10.9766 13.4749 10.8726 13.5047C10.7209 13.5597 10.5761 13.6321 10.441 13.7205C10.3268 13.803 10.1986 13.8641 10.0626 13.9009C10.0375 13.904 10.0121 13.9012 9.98833 13.8927C9.96455 13.8843 9.94306 13.8704 9.92556 13.8522C9.90806 13.834 9.89504 13.812 9.88751 13.7879C9.87998 13.7639 9.87816 13.7383 9.88218 13.7134C9.90432 13.6124 9.9575 13.5209 10.0343 13.4517C10.0964 13.3796 10.1812 13.331 10.2748 13.3137C10.3659 13.3074 10.4559 13.3366 10.5259 13.3951L10.8124 13.0803C10.7494 13.0202 10.674 12.9745 10.5916 12.9464C10.5091 12.9183 10.4216 12.9085 10.3349 12.9176C10.1223 12.9495 9.92793 13.0561 9.78668 13.2182C9.68333 13.3186 9.60149 13.4389 9.54616 13.5719C9.49619 13.6829 9.48377 13.807 9.51079 13.9257C9.52961 14.0321 9.58161 14.1299 9.65935 14.2051C9.71547 14.2635 9.78407 14.3085 9.86002 14.3366C9.93597 14.3648 10.0173 14.3755 10.0979 14.3678C10.273 14.3418 10.4399 14.2765 10.5861 14.1768C10.6855 14.1125 10.7882 14.0535 10.8938 13.9999C10.9467 13.97 11.0063 13.9541 11.0671 13.954C11.1128 13.9599 11.1552 13.9811 11.1874 14.0141C11.2151 14.0428 11.2359 14.0775 11.2482 14.1155C11.2604 14.1535 11.2638 14.1939 11.2581 14.2334C11.2404 14.3427 11.1839 14.4419 11.0989 14.5128C11.0241 14.5954 10.9228 14.6492 10.8124 14.6649C10.6946 14.6668 10.5797 14.6281 10.487 14.5553L10.2217 14.8771C10.3774 15.012 10.5784 15.0827 10.7841 15.0752C11.0047 15.0466 11.2072 14.9384 11.3536 14.771C11.4675 14.664 11.5589 14.5353 11.6224 14.3926C11.6694 14.2809 11.6817 14.1576 11.6578 14.0388C11.6406 13.9058 11.5811 13.7818 11.488 13.6851Z" fill="white"/>
<path d="M12.2274 13.3099L11.8206 12.9032L12.5705 12.1533L12.3193 11.9022L11.5695 12.652L11.237 12.3196L12.0434 11.5131L11.7923 11.262L10.6816 12.3691L12.1778 13.8653L13.3168 12.7263L13.0621 12.4752L12.2274 13.3099Z" fill="white"/>
<path d="M12.3794 10.9967C12.3811 11.1176 12.4038 11.2373 12.4466 11.3504C12.519 11.5205 12.6263 11.6735 12.7614 11.7996C12.8578 11.9059 12.9743 11.992 13.1043 12.0527C13.2343 12.1135 13.375 12.1477 13.5184 12.1533C13.657 12.1536 13.794 12.1247 13.9208 12.0687C14.0475 12.0126 14.1611 11.9306 14.2541 11.8279C14.3558 11.7352 14.4367 11.622 14.4915 11.4959C14.5464 11.3697 14.574 11.2333 14.5724 11.0957C14.5594 10.8045 14.4323 10.5301 14.2187 10.3317C14.0179 10.1114 13.7383 9.97923 13.4406 9.96387C13.3022 9.96491 13.1655 9.99432 13.039 10.0503C12.9124 10.1063 12.7987 10.1876 12.7049 10.2893C12.5923 10.3973 12.5032 10.5273 12.4431 10.6713C12.4 10.7743 12.3783 10.885 12.3794 10.9967ZM12.9631 10.544C13.0165 10.4854 13.0823 10.4394 13.1557 10.4094C13.2292 10.3795 13.3083 10.3662 13.3875 10.3706C13.5813 10.3979 13.7585 10.4947 13.8862 10.643C14.0413 10.7696 14.1425 10.9504 14.1692 11.1488C14.1722 11.2275 14.1589 11.3059 14.13 11.3792C14.1012 11.4525 14.0575 11.5189 14.0016 11.5745C13.9458 11.63 13.879 11.6733 13.8056 11.7017C13.7322 11.7301 13.6536 11.743 13.575 11.7395C13.3856 11.7129 13.2122 11.6187 13.0869 11.4742C12.9378 11.3456 12.8409 11.167 12.8145 10.9719C12.8089 10.8934 12.8203 10.8145 12.8477 10.7407C12.8752 10.6669 12.9181 10.5998 12.9737 10.544H12.9631Z" fill="white"/>
</svg>
