<svg width="24" height="24" viewBox="0 0 24 24" fill="none" xmlns="http://www.w3.org/2000/svg">
<path d="M17.5537 16.2032C17.3697 16.2032 17.1828 16.2591 17.0201 16.378L16.8995 16.4661L16.7785 16.378C16.3162 16.04 15.6603 16.2103 15.4204 16.7306C15.364 16.8524 15.3369 16.9818 15.3369 17.1099C15.3369 17.359 15.4396 17.6035 15.6315 17.7795L16.655 18.7158C16.7931 18.8427 17.0055 18.8427 17.144 18.7158L18.1671 17.7795C18.4583 17.5129 18.5439 17.089 18.3786 16.7306C18.223 16.3935 17.893 16.2032 17.5537 16.2032Z" fill="white"/>
<path d="M15.0442 11.1313H18.6388C19.7224 11.1313 20.604 10.2492 20.604 9.16565V4.96523C20.604 3.88164 19.7224 3 18.6388 3H14.4384C13.3544 3 12.4727 3.88164 12.4727 4.96523V9.16565C12.4727 9.26537 12.4802 9.363 12.4944 9.45855L11.685 10.046C11.6545 10.0681 11.6149 10.0732 11.5798 10.0586H11.579C11.5439 10.0435 11.5193 10.0122 11.5135 9.9751L11.254 8.34033C11.1997 7.99694 10.9035 7.74409 10.5555 7.74409H9.07302C8.92197 7.74409 8.78095 7.79165 8.66537 7.87385V6.18317C8.66537 5.48554 8.09791 4.91808 7.40028 4.91808H4.26551C3.56745 4.91808 3 5.48554 3 6.18317V9.31794C3 10.016 3.56745 10.5834 4.26551 10.5834H4.44242C4.41405 10.7633 4.45494 10.9531 4.56843 11.1096L5.54145 12.4498C5.56314 12.4798 5.56773 12.5191 5.55355 12.5533L5.55271 12.5558C5.53853 12.59 5.50723 12.6146 5.47093 12.6204L3.83533 12.88C3.49193 12.9346 3.23908 13.2305 3.23908 13.5784V15.0609C3.23908 15.4085 3.49193 15.7047 3.83533 15.7594L5.47093 16.0189C5.50723 16.0248 5.53853 16.049 5.55271 16.0832L5.55355 16.0853C5.56773 16.1199 5.56314 16.1595 5.54103 16.19L4.56843 17.5293C4.36439 17.811 4.39485 18.199 4.64061 18.4452L5.68915 19.4933C5.93491 19.7391 6.32295 19.77 6.60459 19.5655L7.94395 18.5929C7.97441 18.5708 8.01405 18.5662 8.0491 18.5808H8.04993C8.08456 18.5954 8.1096 18.6267 8.11544 18.6638L8.37496 20.2986C8.42921 20.642 8.72545 20.8949 9.07302 20.8949H10.5555C10.9035 20.8949 11.1997 20.642 11.254 20.2986L11.5135 18.6634C11.5193 18.6267 11.5439 18.5958 11.5782 18.5812H11.5798C11.6149 18.5662 11.6545 18.5708 11.685 18.5929L13.0243 19.5655C13.1508 19.6577 13.2993 19.7019 13.4466 19.7003C13.5893 20.4401 14.2414 21 15.0221 21H18.8057C19.6907 21 20.4108 20.2802 20.4108 19.3953V15.6117C20.4108 14.7267 19.6907 14.0065 18.8057 14.0065H16.3898V13.5784C16.3898 13.2305 16.137 12.9346 15.7936 12.88L14.158 12.6204C14.1213 12.6146 14.0904 12.59 14.0762 12.5558L14.0754 12.5533C14.0608 12.5191 14.0654 12.4798 14.0875 12.4498L15.0442 11.1313ZM19.9102 19.3953C19.9102 20.004 19.4145 20.4993 18.8057 20.4993H15.0221C14.4517 20.4993 13.9807 20.0641 13.9239 19.5083C13.9293 19.5038 13.9348 19.4983 13.9398 19.4933L14.9879 18.4452C15.2341 18.199 15.2645 17.811 15.0601 17.5293L14.0879 16.19C14.0658 16.1595 14.0612 16.1199 14.0754 16.0853L14.0762 16.0832C14.0904 16.049 14.1213 16.0248 14.158 16.0189L15.7936 15.7594C16.137 15.7047 16.3898 15.4085 16.3898 15.0609V14.5072H18.8057C19.4145 14.5072 19.9102 15.0025 19.9102 15.6117V19.3953ZM12.9734 9.11099V4.96523C12.9734 4.15744 13.6306 3.5007 14.4384 3.5007H18.6388C19.4462 3.5007 20.1033 4.15744 20.1033 4.96523V9.16565C20.1033 9.97343 19.4462 10.6306 18.6388 10.6306H14.4384C13.6306 10.6306 12.9734 9.97343 12.9734 9.16565V9.11099ZM3.50028 6.18317C3.50028 5.76175 3.84325 5.41878 4.26509 5.41878H7.39986C7.82128 5.41878 8.16426 5.76175 8.16426 6.18317V9.31794C8.16426 9.58456 8.0274 9.81989 7.82003 9.95674C7.69944 10.0364 7.55508 10.0828 7.39986 10.0828H4.26551C3.84367 10.0828 3.5007 9.73978 3.5007 9.31794V6.18317H3.50028ZM9.81405 16.2409C8.75299 16.2409 7.89263 15.3809 7.89263 14.3195C7.89263 13.258 8.75299 12.3981 9.81405 12.3981C10.8751 12.3981 11.7355 13.2584 11.7355 14.3195C11.7355 15.3805 10.8751 16.2409 9.81405 16.2409ZM13.417 18.8095C13.4145 18.8099 13.4124 18.8099 13.4099 18.8099C13.3715 18.8099 13.3327 18.7982 13.2997 18.774L12.156 17.9437C12.0722 17.8828 12.0534 17.7651 12.1143 17.6812C12.1752 17.5974 12.2929 17.5786 12.3768 17.6395L13.3907 18.3759L13.417 18.3497L13.9177 17.849L13.9836 17.783C14.057 17.7096 14.1759 17.7096 14.2494 17.783C14.3224 17.8565 14.3224 17.975 14.2494 18.0484L13.543 18.7548C13.5083 18.7894 13.4629 18.8078 13.417 18.8095Z" fill="white"/>
<path d="M5.65608 8.82433H6.00949C6.50393 8.82433 6.90532 8.42336 6.90532 7.92892V7.5751C6.90532 7.08066 6.50393 6.67969 6.00949 6.67969H5.65608C5.16123 6.67969 4.76025 7.08066 4.76025 7.5751V7.92892C4.76025 8.42336 5.16123 8.82433 5.65608 8.82433Z" fill="white"/>
<path d="M15.2575 8.68281C15.3326 8.72621 15.4148 8.7479 15.497 8.7479C15.5792 8.7479 15.6618 8.72621 15.7369 8.68281L17.819 7.48073C17.9692 7.39394 18.0589 7.23872 18.0589 7.06557C18.0589 6.89241 17.9692 6.73678 17.819 6.64999L15.7369 5.4479C15.5867 5.36112 15.4073 5.36112 15.2575 5.4479C15.1073 5.53469 15.0176 5.68991 15.0176 5.86348V8.26723C15.0176 8.44081 15.1073 8.59602 15.2575 8.68281ZM15.5183 5.89978L17.5369 7.06557L15.5183 8.23093V5.89978Z" fill="white"/>
</svg>
