<svg width="25" height="24" viewBox="0 0 25 24" fill="none" xmlns="http://www.w3.org/2000/svg">
<path d="M15.9462 3.88389C17.3772 2.44389 19.4708 2.41389 20.6294 3.57989C21.791 4.74789 21.7601 6.85989 20.3271 8.29989L17.9091 10.7329C17.773 10.8745 17.6978 11.0641 17.6998 11.2608C17.7017 11.4574 17.7807 11.6454 17.9197 11.7843C18.0587 11.9231 18.2465 12.0017 18.4427 12.0032C18.639 12.0046 18.8279 11.9287 18.9689 11.7919L21.3878 9.35889C23.2948 7.43989 23.5343 4.37689 21.6902 2.52089C19.8441 0.663893 16.7935 0.905894 14.8845 2.82489L10.0486 7.69189C8.14157 9.61089 7.90207 12.6739 9.74621 14.5289C9.81509 14.6007 9.89754 14.658 9.98875 14.6975C10.08 14.737 10.1781 14.7579 10.2775 14.759C10.3768 14.7601 10.4754 14.7413 10.5675 14.7039C10.6595 14.6664 10.7432 14.6109 10.8137 14.5406C10.8841 14.4704 10.9399 14.3868 10.9777 14.2947C11.0156 14.2026 11.0347 14.1039 11.0341 14.0044C11.0335 13.9048 11.0131 13.8063 10.9741 13.7147C10.9351 13.6231 10.8783 13.5403 10.807 13.4709C9.64542 12.3029 9.67736 10.1909 11.1094 8.75089L15.9462 3.88389Z" fill="#008DD2"/>
<path d="M14.7049 9.47011C14.5646 9.32914 14.3742 9.24979 14.1755 9.24951C13.9769 9.24923 13.7863 9.32804 13.6456 9.46861C13.5049 9.60917 13.4257 9.79998 13.4255 9.99905C13.4252 10.1981 13.5038 10.3891 13.6441 10.5301C14.8057 11.6981 14.7747 13.8091 13.3417 15.2501L8.50485 20.1161C7.07285 21.5561 4.97924 21.5861 3.82066 20.4201C2.6591 19.2521 2.69103 17.1401 4.12303 15.7001L6.54196 13.2671C6.61135 13.1973 6.66635 13.1145 6.7038 13.0234C6.74125 12.9323 6.76043 12.8347 6.76025 12.7362C6.76006 12.6377 6.74051 12.5401 6.70272 12.4492C6.66492 12.3582 6.60962 12.2756 6.53997 12.2061C6.47032 12.1366 6.38768 12.0815 6.29678 12.0439C6.20587 12.0064 6.10848 11.9872 6.01016 11.9874C5.91185 11.9876 5.81453 12.0071 5.72377 12.045C5.633 12.0829 5.55058 12.1383 5.48119 12.2081L3.06225 14.6411C1.15525 16.5611 0.915747 19.6231 2.75988 21.4791C4.60602 23.3371 7.65663 23.0941 9.56563 21.1751L14.4025 16.3081C16.3095 14.3901 16.549 11.3251 14.7049 9.47011Z" fill="#008DD2"/>
</svg>
