<svg width="25" height="25" viewBox="0 0 25 25" fill="none" xmlns="http://www.w3.org/2000/svg">
<path d="M15.9462 3.90294C17.3772 2.46294 19.4708 2.43294 20.6294 3.59894C21.791 4.76694 21.7601 6.87894 20.3271 8.31894L17.9091 10.7519C17.773 10.8936 17.6978 11.0831 17.6998 11.2798C17.7017 11.4764 17.7807 11.6645 17.9197 11.8033C18.0587 11.9422 18.2465 12.0208 18.4427 12.0222C18.639 12.0236 18.8279 11.9478 18.9689 11.8109L21.3878 9.37794C23.2948 7.45894 23.5343 4.39594 21.6902 2.53994C19.8441 0.682936 16.7935 0.924937 14.8845 2.84394L10.0486 7.71094C8.14157 9.62994 7.90207 12.6929 9.74621 14.5479C9.81509 14.6197 9.89754 14.677 9.98875 14.7165C10.08 14.756 10.1781 14.777 10.2775 14.778C10.3768 14.7791 10.4754 14.7604 10.5675 14.7229C10.6595 14.6854 10.7432 14.6299 10.8137 14.5597C10.8841 14.4894 10.9399 14.4058 10.9777 14.3138C11.0156 14.2217 11.0347 14.123 11.0341 14.0234C11.0335 13.9238 11.0131 13.8254 10.9741 13.7338C10.9351 13.6422 10.8783 13.5593 10.807 13.4899C9.64542 12.3219 9.67736 10.2099 11.1094 8.76994L15.9462 3.90294Z" fill="#008DD2"/>
<path d="M14.7049 9.48915C14.5646 9.34819 14.3742 9.26884 14.1755 9.26856C13.9769 9.26827 13.7863 9.34708 13.6456 9.48765C13.5049 9.62821 13.4257 9.81902 13.4255 10.0181C13.4252 10.2172 13.5038 10.4082 13.6441 10.5491C14.8057 11.7171 14.7747 13.8281 13.3417 15.2691L8.50485 20.1351C7.07285 21.5751 4.97924 21.6052 3.82066 20.4391C2.6591 19.2711 2.69103 17.1591 4.12303 15.7191L6.54196 13.2861C6.61135 13.2164 6.66635 13.1335 6.7038 13.0424C6.74125 12.9514 6.76043 12.8538 6.76025 12.7552C6.76006 12.6567 6.74051 12.5592 6.70272 12.4682C6.66492 12.3773 6.60962 12.2947 6.53997 12.2251C6.47032 12.1556 6.38768 12.1005 6.29678 12.063C6.20587 12.0254 6.10848 12.0062 6.01016 12.0064C5.91185 12.0066 5.81453 12.0262 5.72377 12.0641C5.633 12.1019 5.55058 12.1574 5.48119 12.2271L3.06225 14.6601C1.15525 16.5801 0.915747 19.6421 2.75988 21.4981C4.60602 23.3561 7.65663 23.1131 9.56563 21.1941L14.4025 16.3272C16.3095 14.4092 16.549 11.3441 14.7049 9.48915Z" fill="#008DD2"/>
</svg>
