<svg width="25" height="24" viewBox="0 0 25 24" fill="none" xmlns="http://www.w3.org/2000/svg">
<path d="M15.9459 3.88389C17.3769 2.44389 19.4705 2.41389 20.6291 3.57989C21.7907 4.74789 21.7597 6.85989 20.3267 8.29989L17.9088 10.7329C17.7726 10.8745 17.6975 11.0641 17.6994 11.2608C17.7014 11.4574 17.7804 11.6454 17.9194 11.7843C18.0583 11.9231 18.2462 12.0017 18.4424 12.0032C18.6386 12.0046 18.8276 11.9287 18.9686 11.7919L21.3875 9.35889C23.2945 7.43989 23.534 4.37689 21.6899 2.52089C19.8437 0.663893 16.7931 0.905894 14.8841 2.82489L10.0482 7.69189C8.14124 9.61089 7.90174 12.6739 9.74588 14.5289C9.81475 14.6007 9.8972 14.658 9.98842 14.6975C10.0796 14.737 10.1778 14.7579 10.2771 14.759C10.3765 14.7601 10.4751 14.7413 10.5672 14.7039C10.6592 14.6664 10.7429 14.6109 10.8133 14.5406C10.8838 14.4704 10.9395 14.3868 10.9774 14.2947C11.0152 14.2026 11.0344 14.1039 11.0338 14.0044C11.0332 13.9048 11.0128 13.8063 10.9738 13.7147C10.9348 13.6231 10.878 13.5403 10.8067 13.4709C9.64509 12.3029 9.67702 10.1909 11.109 8.75089L15.9459 3.88389Z" fill="#008DD2"/>
<path d="M14.7045 9.47011C14.5642 9.32914 14.3738 9.24979 14.1751 9.24951C13.9765 9.24923 13.7859 9.32804 13.6452 9.46861C13.5045 9.60917 13.4253 9.79998 13.4251 9.99905C13.4248 10.1981 13.5034 10.3891 13.6437 10.5301C14.8053 11.6981 14.7743 13.8091 13.3413 15.2501L8.50446 20.1161C7.07246 21.5561 4.97884 21.5861 3.82027 20.4201C2.6587 19.2521 2.69063 17.1401 4.12263 15.7001L6.54157 13.2671C6.61096 13.1973 6.66595 13.1145 6.7034 13.0234C6.74085 12.9323 6.76004 12.8347 6.75985 12.7362C6.75967 12.6377 6.74012 12.5401 6.70232 12.4492C6.66453 12.3582 6.60922 12.2756 6.53957 12.2061C6.46992 12.1366 6.38728 12.0815 6.29638 12.0439C6.20548 12.0064 6.10808 11.9872 6.00977 11.9874C5.91145 11.9876 5.81413 12.0071 5.72337 12.045C5.63261 12.0829 5.55018 12.1383 5.48079 12.2081L3.06185 14.6411C1.15485 16.5611 0.91535 19.6231 2.75949 21.4791C4.60562 23.3371 7.65623 23.0941 9.56524 21.1751L14.4021 16.3081C16.3091 14.3901 16.5486 11.3251 14.7045 9.47011Z" fill="#008DD2"/>
</svg>
