<svg width="35" height="35" viewBox="0 0 35 35" fill="none" xmlns="http://www.w3.org/2000/svg">
<path d="M22.9004 11.9629L15.3125 19.5576L12.0381 16.3379C11.3972 15.697 10.3592 15.697 9.71797 16.3379C9.07676 16.9788 9.0771 18.0168 9.71797 18.658L14.093 23.033C14.4717 23.3584 14.8887 23.5156 15.3125 23.5156C15.7363 23.5156 16.152 23.3554 16.4726 23.035L25.2226 14.285C25.8634 13.6441 25.8634 12.6061 25.2226 11.9649C24.5817 11.3237 23.543 11.3271 22.9004 11.9629ZM17.5 0C7.83398 0 0 7.83398 0 17.5C0 27.166 7.83398 35 17.5 35C27.166 35 35 27.166 35 17.5C35 7.83398 27.166 0 17.5 0ZM17.5 31.7188C9.65918 31.7188 3.28125 25.3401 3.28125 17.5C3.28125 9.65986 9.65918 3.28125 17.5 3.28125C25.3408 3.28125 31.7188 9.65986 31.7188 17.5C31.7188 25.3401 25.3408 31.7188 17.5 31.7188Z" fill="#25B900"/>
</svg>
