<svg width="25" height="25" viewBox="0 0 25 25" fill="none" xmlns="http://www.w3.org/2000/svg">
<path d="M16.3574 8.54492L10.9375 13.9697L8.59863 11.6699C8.14087 11.2122 7.39941 11.2122 6.94141 11.6699C6.4834 12.1277 6.48364 12.8691 6.94141 13.3271L10.0664 16.4521C10.3369 16.6846 10.6348 16.7969 10.9375 16.7969C11.2402 16.7969 11.5371 16.6824 11.7661 16.4536L18.0161 10.2036C18.4739 9.7458 18.4739 9.00435 18.0161 8.54634C17.5583 8.08833 16.8164 8.09082 16.3574 8.54492ZM12.5 0C5.5957 0 0 5.5957 0 12.5C0 19.4043 5.5957 25 12.5 25C19.4043 25 25 19.4043 25 12.5C25 5.5957 19.4043 0 12.5 0ZM12.5 22.6562C6.89941 22.6562 2.34375 18.1001 2.34375 12.5C2.34375 6.8999 6.89941 2.34375 12.5 2.34375C18.1006 2.34375 22.6562 6.8999 22.6562 12.5C22.6562 18.1001 18.1006 22.6562 12.5 22.6562Z" fill="#25B900"/>
</svg>
