<svg width="36" height="41" viewBox="0 0 36 41" fill="none" xmlns="http://www.w3.org/2000/svg">
<path d="M35.0403 30.3843L32.4215 26.0437C32.2895 25.8213 32.2189 25.5663 32.2189 25.3058V17.3626C32.2189 13.7761 30.886 10.3162 28.4806 7.65579C26.0752 4.99715 22.7653 3.3242 19.197 2.96607V1.44687C19.197 0.647458 18.5495 0 17.7501 0C16.9507 0 16.3032 0.647458 16.3032 1.44687V2.89375C12.7096 3.23738 9.3726 4.91215 6.94926 7.58902C4.52754 10.2657 3.19281 13.7525 3.2091 17.3625V25.2478C3.2091 25.5083 3.13857 25.7633 3.00654 25.9857L0.387725 30.3842C-0.127732 31.2777 -0.129538 32.3755 0.384108 33.2708C0.895954 34.1642 1.84543 34.7194 2.87634 34.7249H10.5881C11.0348 36.9223 12.4744 38.7887 14.4874 39.778C16.4986 40.7673 18.8569 40.7673 20.868 39.778C22.881 38.7887 24.3206 36.9223 24.7673 34.7249H32.479C33.5226 34.7448 34.4956 34.2004 35.0273 33.3015C35.5572 32.4026 35.563 31.2886 35.0403 30.3843ZM17.6778 37.6187C15.8367 37.6205 14.1963 36.4594 13.5832 34.7249H21.7727C21.1596 36.4594 19.519 37.6205 17.6778 37.6187ZM2.87621 31.8312L5.48058 27.4906C5.88751 26.8142 6.10276 26.0383 6.10276 25.2479V17.3626C6.10276 13.2281 8.30923 9.40639 11.8902 7.33771C15.4713 5.27051 19.8844 5.27051 23.4652 7.33771C27.0463 9.40676 29.2527 13.2284 29.2527 17.3626V25.2479C29.2527 26.0382 29.4679 26.8141 29.8749 27.4906L32.4793 31.8312H2.87621Z" fill="#008DD2"/>
</svg>
